<?xml version="1.0" encoding="utf-8"?>
<!-- Generator: Adobe Illustrator 25.2.3, SVG Export Plug-In . SVG Version: 6.00 Build 0)  -->
<svg version="1.1" id="Layer_1" xmlns="http://www.w3.org/2000/svg" xmlns:xlink="http://www.w3.org/1999/xlink" x="0px" y="0px"
	 viewBox="0 0 4717.4 878.5" style="enable-background:new 0 0 4717.4 878.5;" xml:space="preserve">
<style type="text/css">
	.st0{fill:#231F20;}
	.st1{fill:#FFFFFF;}
	.st2{fill:none;}
</style>
<g>
	<path d="M2514.3,326.1c0-40.3,0-81.7-4.7-121.4c-3-27.8-8.9-54.5-21.9-79.3c-30.2-57.4-98.9-86.5-163.4-81.7
		c-65.1,4.1-128.5,30.2-158.7,87.6c-33.2,61.6-28.4,151.6-27.2,219.1c0,13.6,0.6,27.8,0.6,41.4c0.6,27.8,0,194.2,0,257.6
		c0,74,27.2,101.8,50.9,129.7c32.6,37.9,92.4,49.7,142.1,50.9c39.7,1.2,81.1-7.7,112.5-32c30.8-23.7,51.5-60.4,60.4-98.3
		c8.9-37.9,6.5-77,7.1-115.5c0.6-72.8,1.2-145.7,1.8-218.5C2513.7,352.1,2514.3,339.1,2514.3,326.1z M2484.1,483
		c-0.6,50.3-1.2,97.1-3,147.4c-0.6,26.1-3,46.8-9.5,72.2c-7.1,25.5-20.1,49.7-41.4,65.1c-15.4,11.3-33.2,20.7-52.1,24.9
		c-55.7,11.8-117.8,1.2-158.1-28.4c-34.3-24.9-51.5-68.1-51.5-110.1c0-123.8-3.6-190.1-2.4-305.5c0-20.1-0.6-62.8-0.6-82.9
		c0-18.4,7.1-76.4,13-93.6c11.8-33.8,34.3-57.4,65.1-77.6c52.1-33.8,124.3-29.6,178.2,2.4c14.8,8.9,27.8,19.5,37.3,33.8
		c11.3,17.2,16,37.3,18.9,56.8c7.1,46.2,7.1,85.9,7.1,132.6C2484.7,374.6,2484.7,429.1,2484.1,483z"/>
	<g>
		<g>
			<path class="st0" d="M2293.4,724.6c-6.5,0-13-0.6-18.4-1.2c-1.8,0-3.6,0-5.3,0c-0.6,0-0.6,0-1.2,0h-1.8c-1.2,0-2.4,0-3.6,0h-0.6
				c-1.2,0-2.4,0-3.6-0.6c-1.2-0.6-3-0.6-4.7-0.6c-1.2,0-2.4,0-3.6,0c-0.6,0-1.8,0-2.4,0c-1.2,0-2.4,0-4.1,0c-1.2,0-2.4,0-3.6,0
				c-3.6,0-6.5,0-9.5-0.6c-0.6,0-1.2,0-1.8-0.6c-3.6-0.6-4.1-3-4.7-5.3c0-2.4,0-4.7,0-6.5c0-0.6,0-1.2,0-1.2c-0.6-1.8,0-3.6,0-4.7
				c0-0.6,0-1.2,0-1.8c0-1.2,0-3,0-4.1c0-1.8,0-3,0-4.7c0-1.2,0-2.4-0.6-3V689c0-0.6,0-1.8,0-2.4c0.6-2.4,2.4-4.1,4.7-4.1h0.6
				c0.6,0,1.2,0,1.8,0h0.6c0,0,0.6,0,1.2,0c1.2,0,2.4,0,4.1,0c1.2,0,2.4,0,3,0s1.2,0,1.8,0c2.4,0,4.7,0,7.7,0c1.2,0,2.4,0,3.6,0
				c0.6,0,1.2,0,1.8,0s1.2,0,1.8,0c2.4,0,4.7,0,6.5,0c0-1.2,0-1.8,0-3c0-1.8,0-3,0-4.7c0-1.2,0-3,0-4.1v-2.4c-0.6-2.4-0.6-4.7,0-6.5
				c0-1.2,0-1.8,0-3c0-3.6,0-7.1,0-10.7c0-1.2,0-2.4,0-3c0-4.7,0-9.5,0-14.2v-1.2c0-1.8,0-3.6,0-5.3c0-2.4,0-5.3,0-7.7
				c0-1.2,0-2.4,0-3.6c0-3,0-5.9,0-9.5c0-2.4,0-4.7,0-7.1c0-1.2,0-1.8,0-3c0-1.8,0-3,0-4.7c0-2.4,0-4.7,0-7.1c0-0.6,0-1.8,0-2.4
				c0-3,0-5.9,0-8.9c0-2.4,0-5.3,0-8.3c0-1.8,0-3.6,0-5.3c0-3,0-5.3,0-7.7c0-3,0-5.3,0-7.7s0-4.7,0-7.1c0-0.6,0-1.2,0-2.4
				c0-3,0-5.9,0-8.9c0-1.2,0-2.4,0-3.6c-3.6,0-6.5,0-9.5,0c-2.4,0-4.7,0-6.5,0c-1.2,0-2.4,0-4.1,0s-3.6,0-5.3,0c-1.2,0-2.4,0-4.1,0
				c-1.2,0-3,0-4.1,0c-0.6,0-1.2,0-1.8,0h-2.4l-1.2-1.2c-1.8-1.8-2.4-4.1-1.2-6.5c0,0,0,0,0-0.6c-0.6-1.8-0.6-3.6,0-5.3
				c0-1.8,0-3.6,0-5.3c0-0.6,0-1.8,0-2.4c0-1.8,0-3-0.6-4.7c0-0.6,0-1.2,0-1.8c0-1.2,0-2.4,0-3c0-0.6,0-1.2,0-1.8c0-1.2,0-1.8,0-2.4
				v-0.6c0-1.2,0.6-1.8,0.6-1.8l1.2-1.8l2.4-0.6h1.2c1.2,0,1.8,0,3-0.6c0.6,0,1.8,0,2.4,0h0.6c0,0,0.6,0,1.2,0c0.6,0,1.2,0,1.2,0
				s0,0,0.6,0s0.6,0,1.2,0c0.6,0,0.6,0,1.2,0c8.3-0.6,17.8-1.2,27.2-1.2h1.2c1.8,0,3,0,4.7,0c1.8,0,3,0,4.7,0c1.2,0,3,0,4.1,0h7.7
				c2.4,0,5.3,0,7.7,0c5.9,0,11.3,0,16.6,0.6c3.6,0,7.7,0.6,11.3,0.6c1.8,0,4.1,0,5.9,0.6c1.8,0,3.6,0,5.3,0c3,0,5.9,0,8.3,0.6
				c20.1,1.2,40.9,7.7,59.2,18.9c19.5,11.8,34.3,27.8,42.6,45.6c4.1,8.3,6.5,16.6,7.1,24.9c0,1.2,0,2.4,0,3.6c0,1.2,0,3,0.6,4.1
				c1.2,14.2,2.4,28.4-1.2,42.6v0.6c0,3-0.6,5.9-1.8,9.5c-0.6,1.8-1.2,3.6-1.8,5.3c-0.6,1.2-0.6,2.4-1.2,3.6
				c-1.2,4.1-3,7.7-4.1,11.3l-0.6,1.8c-0.6,1.2-1.2,2.4-1.8,3.6c0,0.6-0.6,1.2-0.6,1.2c0,1.8-1.2,3-1.8,4.1v0.6
				c-1.2,1.8-1.8,3-3,4.7l-1.2,1.8c-1.2,2.4-2.4,4.1-4.1,5.3l-0.6,0.6l-0.6,0.6c-11.8,17.8-27.8,31.4-48.6,39.1
				c-16.6,6.5-36.7,9.5-60.4,9.5l0,0c-2.4,0-4.7,0-7.1,0c-0.6,0-1.8,0-2.4,0c-1.2,0-2.4,0-3.6,0c-4.7,0.6-9.5,0.6-14.2,0.6
				L2293.4,724.6z M2316.5,682.5c0.6,0,1.2,0,1.2,0c0.6,0,1.2,0,1.8,0c1.8,0,3.6,0,5.3,0c1.2,0,2.4,0,3.6,0c1.2,0,1.8,0,3,0
				c2.4,0,5.3-0.6,7.7-0.6h2.4h0.6c0.6,0,1.2,0,1.8,0c1.8,0,3.6-0.6,5.3-0.6c1.8-0.6,3-0.6,4.7-1.2c3-0.6,5.9-1.2,8.9-2.4
				c2.4-0.6,4.1-1.2,5.9-1.8c1.2-0.6,2.4-1.2,4.1-1.2c0.6,0,1.8-0.6,2.4-1.2c20.1-14.8,32.6-33.2,36.7-54.5c0.6-1.8,0.6-4.1,0.6-5.9
				l0,0c0,0,0.6-13.6-1.8-28.4c-3-18.9-8.3-32.6-16.6-38.5l-0.6-0.6l-0.6-0.6c-0.6-0.6-1.2-1.2-1.2-1.8c-1.2-0.6-1.8-1.8-2.4-2.4
				l-0.6-0.6c-3.6-3-7.1-5.9-11.8-8.3c-1.2-0.6-2.4-1.2-3.6-1.8l-1.8-0.6c-3-1.2-5.9-2.4-8.9-3.6l-1.2-0.6c-3-1.2-5.3-1.8-7.7-2.4
				c-1.8,0-3-0.6-4.7-1.2c-0.6,0-1.2-0.6-1.8-0.6h-0.6c-1.8,0-3.6,0-4.7,0h-0.6c-1.2,0-2.4,0-3.6,0c-1.2,0-2.4,0-3.6,0h-0.6
				c-5.3,0-10.7,0-15.4,0c-0.6,0-1.2,0-1.2,0c-0.6,0-0.6,0-1.2,0h-1.2c-1.8,0-3,0-4.7,0c-0.6,0-1.2,0-1.8,0c-0.6,0-1.8,0-2.4,0
				c0,2.4-0.6,5.3-0.6,8.3v0.6c0,4.7-0.6,10.1-0.6,15.4c-0.6,16,0,32.6,0,48.6c0,7.7,0,16,0,23.7c0,2.4,0,4.1,0,6.5c0,3,0,6.5,0,9.5
				c0,3.6,0,7.7,0,11.3c0,1.8,0,3,0,4.7c0,1.2,0,3,0,4.1c0,3,0,5.9,0,8.9c0,3,0,5.3-0.6,8.3c0,1.8,0,3.6,0,5.3c0,1.2,0,1.8,0,3
				s0,1.8,0,3c0,1.2,0,1.8,0,3v0.6c0.6,0,0.6,0,1.2,0c3.6,0,6.5,0,10.1,0l0,0c0.6,0,0.6,0,1.2,0
				C2315.9,682.5,2316.5,682.5,2316.5,682.5z"/>
			<path class="st1" d="M2266.2,481.8c0.6,0,0.6,0,1.2,0c3,0,6.5,0,9.5,0c1.2,0,3,0,4.1,0c2.4,0,4.7,0,7.7,0c2.4,0,5.3,0,7.7,0
				c5.3,0,11.3,0,16.6,0.6c5.9,0,11.3,0.6,17.2,0.6c4.7,0,9.5,0.6,13.6,0.6c39.1,2.4,81.7,26.6,98.9,62.2c3.6,7.1,5.9,15.4,6.5,23.7
				c0,1.2,0,2.4,0,3.6c1.2,15.4,3,30.8-0.6,46.2c0,0.6,0,1.2,0,1.2c0,3-0.6,5.3-1.2,7.7c-1.2,3-1.8,6.5-3,9.5
				c-1.2,4.1-3,8.3-5.3,12.4c-0.6,1.8-1.8,3-2.4,4.7l-0.6,0.6c0,1.2-0.6,2.4-1.2,3.6c-1.2,2.4-3,4.1-4.1,6.5c0,0,0,0.6-0.6,0.6
				c-0.6,1.8-2.4,3.6-3.6,4.7c-0.6,0.6-1.2,1.2-1.2,1.8c-24.3,37.3-64.5,46.8-105.4,46.8c-2.4,0-4.7,0-7.1,0c-0.6,0-1.8,0-2.4,0
				c-1.2,0-2.4,0-3.6,0c-4.7,0.6-8.9,0.6-13.6,0.6h-0.6c-5.9,0-11.8-0.6-17.8-1.2c-1.8,0-4.1,0-5.9,0c-0.6,0-1.2,0-1.2,0
				c-1.8,0-3.6,0-5.3,0c0,0,0,0-0.6,0c-0.6,0-1.8,0-2.4,0c-1.8-0.6-3.6-0.6-5.3-0.6s-4.1,0-5.9,0c-2.4,0-4.7,0-7.7,0
				c-3,0-5.9,0-8.9-0.6c-0.6,0-1.2,0-1.2,0c-1.2-0.6-1.2-0.6-1.8-1.8c0-2.4,0-4.7,0.6-7.7c0,0,0,0,0-0.6c-0.6-2.4,0-4.7,0-6.5
				c0-3,0-5.9,0-8.9c0-1.2,0-2.4,0-3s0-1.2,0-1.2c0-0.6,0.6-1.2,1.2-1.2h0.6c0.6,0,1.2,0,1.8,0s0.6,0,1.2,0l0,0
				c1.2,0,2.4-0.6,3.6-0.6c1.8,0,3,0,4.7,0c3.6,0,7.7,0,11.3,0c1.2,0,2.4,0,3,0c3.6,0,7.1,0,10.7,0c0-0.6,0-1.2,0-1.8
				c0-3,0-6.5,0.6-9.5c0-1.8,0-4.1,0.6-5.9v-0.6c-0.6-3,0-5.9,0-8.9c0-4.7,0-8.9,0.6-13.6c0-5.3,0-10.1,0-15.4c0-4.1-0.6-8.9-0.6-13
				c0-4.1,0-8.3,0-12.4c0-3.6,0-7.1,0-10.7c0-4.1,0-7.7,0-11.8c0-3.6,0-7.1,0-10.7c0-3,0-5.9,0-8.9c0-4.7,0.6-8.9,0-13.6
				c0-2.4,0-4.7,0-7.1c0-3,0-6.5,0-9.5s0-5.9,0-8.9c0-1.8,0-3.6-0.6-5.3c0-0.6,0-1.2-0.6-1.8c-0.6,0-0.6,0-1.2,0
				c-4.1,0-7.7-0.6-11.8-0.6c-2.4,0-4.7,0-7.1,0c-1.2,0-2.4,0-3.6,0c-3,0-5.9,0-9.5,0c-1.2,0-3,0-4.1,0c-0.6,0-1.8,0-2.4,0
				c-0.6-0.6-0.6-1.2-0.6-1.8c0.6-1.2,0-1.8,0-3c0-1.2,0-3,0-4.1c0-3,0-5.3,0.6-8.3c0-2.4-0.6-4.7-0.6-7.1c0-1.2,0-3,0-4.1
				c0-0.6,0-1.8,0-2.4c0,0,0-0.6,0.6-0.6c1.2,0,2.4-0.6,4.1-0.6c1.2,0,1.8,0,3-0.6h0.6l0,0c0.6,0,1.2,0,1.8,0c1.2,0,1.8,0,3,0
				C2248.4,482.4,2257.3,481.8,2266.2,481.8 M2314.1,686.7c0.6,0,1.8,0,2.4,0c0.6,0,0.6,0,1.2,0s1.2,0,1.8,0c1.8,0,4.1,0,5.9-0.6
				c2.4,0,4.1,0,6.5-0.6c3.6-0.6,7.1-0.6,10.7-1.2c0.6,0,1.2,0,1.8,0c1.8,0,4.1-0.6,5.9-1.2c4.7-1.2,8.9-2.4,13.6-3.6
				c2.4-0.6,4.1-1.2,6.5-2.4c1.2-0.6,1.8-0.6,3-1.2c1.8-0.6,3-1.2,4.1-1.8c19.5-14.2,33.8-33.2,38.5-56.8c0.6-2.4,0.6-4.1,0.6-6.5
				c0,0,2.4-54.5-19.5-70.5c-0.6-1.2-1.2-1.8-2.4-3c-1.2-0.6-1.8-1.8-3-2.4c-3.6-3.6-8.3-5.9-12.4-8.9c-1.2-0.6-3-1.2-4.1-1.8
				c-3.6-1.8-7.1-3-11.3-4.7c-3-1.2-6.5-2.4-10.1-3c-2.4-0.6-4.1-1.2-6.5-1.8c-0.6,0-1.2,0-1.2,0c-1.8,0-3.6,0-5.3,0c0,0,0,0-0.6,0
				c-2.4,0-4.7,0-7.1,0c0,0,0,0-0.6,0c-5.3,0-10.7,0-15.4,0c-0.6,0-1.8,0-2.4,0c-1.8,0-4.1,0-5.9,0c-0.6,0-1.2,0-1.8,0
				c-1.8,0-3,0-4.7,0c-0.6,0-0.6,0-1.2,0c0,0.6,0,1.2-0.6,1.2c0,3.6-0.6,6.5-0.6,10.1c0,5.3-0.6,10.7-0.6,16
				c-0.6,24.3,0,48,0.6,72.2c0,5.3,0,10.7,0,16c0,5.3,0,10.7-0.6,16c0,4.1,0,8.9-0.6,13c0,4.1-0.6,8.9-0.6,13c0,1.8,0,3.6,0,5.3
				c0,1.8,0,3.6-0.6,5.3c0,0.6,0,1.2,0,2.4c0.6,0,0.6,0,1.2,0c1.2,0,3,0,4.1,0C2307,686.1,2310.6,686.1,2314.1,686.7L2314.1,686.7
				 M2266.2,473.5L2266.2,473.5c-9.5,0-18.9,0.6-27.2,1.2c-0.6,0-1.2,0-1.2,0h-0.6c-0.6,0-1.2,0-1.8,0c-0.6,0-1.2,0-1.2,0h-0.6
				c-0.6,0-1.8,0-2.4,0c-1.2,0-1.8,0-3,0.6h-1.2l-4.1,0.6l-1.8,3.6c-0.6,0.6-1.2,1.8-1.2,3.6v0.6c0,0.6,0,1.8,0,3c0,0.6,0,0.6,0,1.2
				c0,1.2,0,2.4,0,3.6c0,0.6,0,1.2,0,2.4c0,1.8,0.6,3,0.6,4.1c0,0.6,0,1.8,0,2.4c0,1.8,0,3.6,0,5.3c0,1.8,0,3.6,0,5.9
				c-1.2,3.6,0,7.1,3,9.5l2.4,2.4h3h0.6c0.6,0,1.2,0,1.8,0c1.2,0,3,0,4.1,0s2.4,0,4.1,0s3.6,0,5.3,0s3,0,4.1,0c2.4,0,4.1,0,6.5,0
				c1.8,0,4.1,0,5.9,0c0,3,0,5.3,0,8.3c0,0.6,0,1.2,0,2.4c0,2.4,0,4.7,0,7.1c0,2.4,0,5.3,0,8.3c0,2.4,0,4.7,0,7.1c0,1.8,0,3.6,0,5.3
				c0,3.6,0,5.9,0,8.3c0,3,0,5.9,0,8.9c0,0.6,0,1.8,0,2.4c0,2.4,0,4.7,0,7.1c0,1.8,0,3,0,4.7c0,1.2,0,2.4,0,3c0,2.4,0,4.7,0,6.5
				c0,3.6,0,6.5,0,9.5c0,1.2,0,2.4,0,3.6c0,3,0,5.3,0,7.7c0,1.8,0,3.6,0,5.3v1.2c0,4.7,0,9.5,0,13.6c0,1.2,0,2.4,0,3
				c0,3.6,0,7.1,0,10.7c0,0.6,0,1.8,0,2.4c0,1.8,0,4.1,0,7.1c0,0.6,0,1.2,0,1.8c0,1.2,0,3,0,4.1c0,1.2,0,2.4,0,3.6c-1.2,0-1.8,0-3,0
				c-0.6,0-1.2,0-1.8,0s-1.2,0-1.8,0c-1.2,0-2.4,0-3.6,0c-2.4,0-4.7,0-7.1,0c-0.6,0-1.2,0-1.2,0c-1.2,0-2.4,0-3.6,0
				c-1.8,0-3,0-4.1,0h-0.6h-0.6c-0.6,0-1.2,0-1.8,0c-0.6,0-0.6,0-1.2,0c-4.1,0-7.7,3.6-8.3,7.7c0,1.2,0,2.4,0,3v0.6
				c0,1.2,0,2.4,0.6,3.6c0,1.2,0,2.4,0,4.1c0,1.2,0,3,0,4.7v1.2c0,1.2,0,3,0,5.3v0.6c0,2.4-0.6,4.7,0,7.7c0.6,4.7,3,7.7,7.7,8.9
				c0.6,0,1.2,0.6,1.8,0.6c3.6,0.6,6.5,0.6,10.1,0.6c1.2,0,2.4,0,3.6,0s2.4,0,3.6,0c0.6,0,1.8,0,2.4,0c1.2,0,2.4,0,3.6,0
				c1.2,0,2.4,0,3.6,0.6c1.8,0.6,3,0.6,4.1,0.6h0.6c1.2,0,2.4,0,4.1,0c0.6,0,1.2,0,1.8,0c0.6,0,0.6,0,1.2,0c1.8,0,3.6,0,5.3,0
				c5.3,0.6,11.8,1.2,18.9,1.2h0.6c4.7,0,9.5,0,14.2-0.6c1.2,0,1.8,0,3,0c0.6,0,1.2,0,2.4,0c2.4,0,4.7,0,7.1,0
				c24.3,0,44.4-3.6,62.2-10.1c21.3-8.3,37.9-21.9,50.3-40.3c0,0,0,0,0.6-0.6c0,0,0,0,0.6-0.6c1.2-1.2,3.6-3.6,4.7-6.5l1.2-1.8
				c1.2-1.8,1.8-3,3-4.7c0,0,0,0,0-0.6c0.6-1.2,1.8-2.4,2.4-5.3c0,0,0-0.6,0.6-0.6c0.6-1.2,1.2-2.4,1.8-3.6c0-0.6,0.6-1.2,0.6-1.8
				c1.8-3.6,3.6-7.7,4.7-11.8c0.6-1.2,0.6-2.4,1.2-3.6c0.6-1.8,1.2-3.6,1.8-5.3c1.2-3.6,1.8-7.1,1.8-10.1l0,0
				c3.6-14.8,2.4-29.6,1.2-43.8c0-1.2,0-3-0.6-4.1c0-1.2,0-2.4,0-3.6c-0.6-8.9-3-17.8-7.1-26.6c-8.9-18.4-24.3-34.9-44.4-47.4
				c-18.9-11.8-40.9-18.4-61-19.5c-3,0-5.9,0-8.3-0.6c-1.8,0-3.6,0-5.3,0s-4.1,0-5.9-0.6c-3.6,0-7.7-0.6-11.8-0.6
				c-5.3,0-10.7-0.6-16.6-0.6c-3,0-5.9,0-8.3,0h-3.6h-3.6c-1.2,0-3,0-4.1,0c-1.8,0-3,0-4.7,0s-3,0-4.7,0
				C2266.8,473.5,2266.8,473.5,2266.2,473.5L2266.2,473.5L2266.2,473.5z M2308.8,523.2L2308.8,523.2c1.8,0,3,0,4.7,0h1.2h0.6
				c0.6,0,1.2,0,1.8,0c4.7,0,10.1,0,16,0h0.6c1.2,0,2.4,0,3.6,0s2.4,0,3.6,0h0.6c1.8,0,3,0,4.7,0c0.6,0,1.2,0.6,1.8,0.6
				c1.2,0.6,3,0.6,4.7,1.2c2.4,0.6,4.7,1.2,7.1,2.4c0.6,0,0.6,0.6,1.2,0.6c3,1.2,5.9,2.4,8.9,3.6l1.8,0.6l0,0
				c1.2,0.6,2.4,1.2,3.6,1.8c4.1,2.4,8.3,5.3,11.3,7.7l0.6,0.6c0.6,0.6,1.8,1.8,3,2.4c0,0,0,0,0.6,0.6l0.6,1.2l1.2,0.6
				c7.1,5.3,12.4,17.8,14.8,35.5c1.8,14.8,1.8,27.8,1.8,27.8l0,0l0,0c0,1.8,0,3.6-0.6,5.3c-4.1,20.7-15.4,37.9-35.5,52.1
				c-0.6,0.6-1.2,0.6-1.2,0.6c-1.8,0.6-3.6,1.2-4.7,1.8c-1.2,0.6-3,1.2-4.7,1.8c-3,0.6-5.9,1.8-8.9,2.4c-1.8,0.6-3,0.6-4.7,1.2
				c-1.2,0.6-3,0.6-4.1,0.6s-1.8,0-2.4,0l0,0c-0.6,0-1.8,0-2.4,0c-2.4,0-5.3,0.6-7.7,0.6c-0.6,0-1.8,0-2.4,0c-1.2,0-2.4,0-3.6,0
				c-1.8,0-3.6,0-5.3,0c-0.6,0-1.2,0-1.8,0c-0.6,0-1.2,0-1.2,0c-0.6,0-0.6,0-1.2,0s-0.6,0-1.2,0l0,0c-2.4,0-4.7,0-7.1,0
				c0-0.6,0-1.8,0-2.4c0-1.2,0-1.8,0-2.4c0-1.8,0-3.6,0-5.3c0-2.4,0-5.3,0.6-8.3c0-3,0-5.9,0-8.9c0-1.2,0-2.4,0-4.1c0-1.8,0-3,0-4.7
				c0-3.6,0-7.7,0-11.3c0-3.6,0-6.5,0-10.1c0-1.8,0-4.1,0-5.9c0-7.7,0-16,0-23.7c0-16-0.6-32,0-48c0-4.7,0.6-10.1,0.6-14.8v-0.6
				C2308.8,526.2,2308.8,524.4,2308.8,523.2L2308.8,523.2z"/>
		</g>
		<g>
			<path class="st0" d="M2329.5,469.4c-4.1,0-7.7-0.6-11.3-1.8c-1.8,0-2.4,0-3.6,0h-0.6c-1.8,0-3.6,0-5.3-0.6
				c-1.2-0.6-3-0.6-4.1-0.6h-1.2c-4.1-0.6-8.3-1.8-11.3-3c-0.6,0-1.2-0.6-1.8-0.6c-1.8-0.6-3.6-0.6-4.7-1.2c-0.6,0-1.2-0.6-1.8-0.6
				c-3.6-1.2-7.1-2.4-10.1-4.1l-0.6-0.6c-4.1-1.8-8.3-4.1-13-7.7c-0.6-0.6-1.8-1.2-2.4-1.2c-3.6-2.4-7.1-4.7-10.7-8.3
				c-1.2-1.2-1.8-1.8-3-3c-0.6-0.6-1.8-1.2-2.4-2.4c-1.2-1.2-2.4-2.4-3.6-3.6c-4.1-4.7-7.7-9.5-10.1-13.6c-0.6-0.6-1.2-1.8-1.2-2.4
				c-0.6-1.2-1.2-1.8-1.8-3c-1.2-2.4-3-5.3-4.1-7.7c-0.6-1.8-1.8-3.6-2.4-4.7c-0.6-1.2-1.2-2.4-1.8-4.1c-1.8-3.6-3-7.1-3.6-11.3
				l-2.4-9.5c0-1.2-0.6-1.8-0.6-3c-0.6-2.4-1.2-5.3-1.8-7.7c0-1.2-0.6-1.8-0.6-3s-0.6-3-0.6-4.1c0-0.6,0-1.8,0-2.4
				c0-1.2,0-2.4,0-3.6v-1.2c0-3-0.6-5.3,0-8.3c0-1.2,0-3,0-4.7c0-0.6,0-1.8,0-2.4c0-0.6,0-1.2,0-1.8c0-1.8,0-3.6,0-5.3
				c9.5-39.7,28.4-65.7,61-82.9c3-1.8,6.5-3,9.5-4.7l1.8-1.2c4.7-2.4,9.5-4.1,16-5.3c0.6,0,1.2-0.6,1.8-0.6c1.2-0.6,3-0.6,4.7-1.2
				c1.8,0,3-0.6,4.7-0.6s3-0.6,4.7-0.6c2.4-0.6,4.1-0.6,6.5-0.6h1.8c1.2,0,2.4,0,4.1,0c1.2,0,1.8,0,3,0c0.6,0,1.8,0,2.4,0
				c0.6,0,1.2,0,1.8,0c1.2,0,1.8,0,3,0s1.8,0,3,0c3.6,0,6.5,1.2,9.5,1.8l1.2,0.6c2.4,0.6,5.3,1.2,8.3,2.4c3.6,1.2,7.1,2.4,10.1,3.6
				c1.8,0.6,3,1.2,4.7,2.4c0.6,0.6,1.8,0.6,2.4,1.2c1.8,1.2,4.1,1.8,5.9,2.4c3.6,1.2,5.9,3,8.3,4.7c1.8,1.2,3.6,2.4,5.3,3.6
				c1.2,0.6,1.8,1.2,3,1.8c1.8,1.2,3.6,3,5.3,4.1c0,0,0,0,0-0.6c0-0.6,0-0.6,0-1.2c0-0.6,0-1.2,0-1.8s0-1.2,0-1.2c0-0.6,0-1.2,0-1.2
				c0-1.8,0-3,0-4.7c0-1.2,0-2.4,0-3.6c0-0.6,0-1.2,0-1.2l0,0l0.6-2.4l2.4-0.6h0.6c0.6,0,1.2,0,1.8-0.6c1.2,0,1.8,0,3-0.6
				c1.8,0,3-0.6,4.7-0.6c0.6,0,1.8,0,2.4-0.6c0.6,0,1.8-0.6,3-0.6c1.8,0,3-0.6,4.7-0.6c1.2,0,2.4,0,3.6-0.6c1.2,0,2.4-0.6,3.6-0.6
				c0.6,0,1.8,0,2.4-0.6c0.6,0,1.2,0,1.8,0h2.4l1.2,1.2c2.4,1.8,2.4,4.1,2.4,4.7l0,0c0,2.4,0,5.3,0,7.7c0,5.9,0,11.3,0,17.2
				c0,7.1,0,14.2,0,21.3c0,3.6,0,7.7,0,11.3s0,7.1,0,11.3c0,0.6,0,1.8,0,2.4c0,0.6,0,1.2,0,1.2c0,0.6,0,1.2,0,1.2v0.6
				c0,0.6,0,1.2,0,1.8v4.1l-3,1.2c0,0,0,0-0.6,0s-1.2,0.6-1.8,0.6c-8.3,1.2-17.2,3-25.5,4.1c-0.6,0-1.8,0-2.4,0.6
				c-0.6,0-0.6,0-1.2,0l-2.4,0.6l-1.2-2.4c-0.6-1.2-1.8-3-2.4-4.1v-0.6c0,0,0-0.6-0.6-0.6l0,0c-0.6-0.6-1.2-1.8-1.8-2.4
				c-1.2-1.8-1.8-3-3-4.7c-0.6-1.2-1.8-1.8-2.4-3c0-0.6-0.6-0.6-0.6-1.2c-4.1-5.9-8.3-10.7-13-15.4c-2.4-2.4-4.7-4.1-7.1-5.9
				c-1.2-0.6-2.4-1.8-3-2.4c-1.8-1.8-3.6-3-5.9-4.1c-0.6-0.6-1.2-0.6-2.4-1.2c-2.4-1.8-5.3-3-7.7-4.1c-3.6-1.8-6.5-2.4-9.5-3
				c-0.6,0-1.8-0.6-2.4-0.6c-0.6,0-1.2,0-1.2-0.6c-3.6-0.6-7.1-1.2-10.7-1.8c-0.6,0-1.8,0-2.4,0c-0.6,0-1.2,0-1.2,0
				c-0.6,0-1.8,0-2.4,0s-1.2,0-1.8,0h-0.6c-2.4,0-4.7,0-7.1,1.2c-1.8,0.6-3,1.2-4.7,1.2c-1.2,0.6-2.4,0.6-3.6,1.2
				c-3,0.6-5.3,1.8-7.7,3c-0.6,0.6-1.2,0.6-1.8,0.6h-0.6c-1.8,0.6-3,1.2-4.1,2.4c-1.2,1.2-2.4,2.4-4.1,3c-0.6,0.6-1.2,0.6-1.8,1.2
				c-1.8,1.2-3.6,3-5.3,4.1l-1.8,1.2c-1.2,1.2-2.4,2.4-3.6,3c-0.6,0.6-1.2,1.2-1.8,1.8c-0.6,0.6-1.2,1.2-1.8,1.2h-0.6
				c-0.6,0.6-20.7,13.6-21.9,50.3v1.8c0,1.8,0,3.6,0,5.3l0,0c0,0.6,0,1.2,0,1.8c0.6,1.8,0.6,3.6,0,5.9c0,0.6,0,1.8,0,2.4
				c0,1.2,0.6,2.4,0.6,3.6c0,0.6,0,0.6,0,1.2c0.6,2.4,1.2,4.7,1.8,7.1c0.6,1.2,0.6,1.8,1.2,3s0.6,2.4,1.2,3.6c0,0.6,0.6,1.8,0.6,2.4
				s0.6,1.2,0.6,1.8c0,1.2,0.6,1.8,1.2,3c0.6,1.2,1.2,2.4,1.8,4.1l0.6,1.8c3,5.3,5.9,10.1,9.5,14.2c1.2,1.8,3,3,4.7,4.7
				c1.8,1.8,4.1,3.6,5.9,4.7l2.4,1.8c1.2,1.2,3,2.4,4.7,3c0.6,0.6,1.2,0.6,1.8,1.2c3.6,2.4,7.1,4.1,11.8,5.9
				c2.4,1.2,5.3,1.8,7.7,2.4c1.2,0,3,0.6,4.1,0.6c1.8,0.6,4.1,0.6,6.5,1.2c1.2,0,3,0.6,4.1,0.6c1.8,0,3.6,0,4.7,0.6
				c1.8,0,3,0,4.7,0.6c0.6,0,0.6,0,1.2,0l0,0c1.8,0,3.6,0,5.3-0.6h0.6c0.6,0,1.2,0,2.4-0.6c1.2,0,2.4-0.6,4.1-0.6
				c2.4,0,4.7-1.2,7.1-1.8c1.2-0.6,3-1.2,4.1-1.8c3-1.2,5.9-2.4,8.9-4.1h0.6h0.6c1.2-0.6,2.4-1.2,4.1-2.4c0.6-0.6,1.2-1.2,2.4-1.2
				c0,0,0.6,0,0.6-0.6c2.4-2.4,4.7-4.1,7.1-5.9c1.2-0.6,1.8-1.2,3-2.4c0.6-0.6,1.2-1.2,2.4-1.8c0.6-0.6,1.8-1.2,2.4-1.8
				c0.6-0.6,1.2-1.2,1.2-1.2c4.1-4.1,7.1-7.7,9.5-11.3c2.4-3,4.1-6.5,5.9-9.5l0.6-1.2c1.2-2.4,2.4-4.1,4.1-7.1
				c1.2-1.8,1.8-3.6,2.4-5.3c0.6-0.6,1.2-2.4,1.2-2.4c0.6-1.2,1.2-3,2.4-4.7c0.6-0.6,0.6-0.6,1.2-1.2l0,0l1.8-1.8l2.4,0.6
				c2.4,0.6,4.1,1.8,6.5,3.6l0.6,0.6c1.2,0.6,2.4,1.8,3.6,1.8c1.2,0.6,2.4,1.2,3,1.8c0.6,0.6,0.6,0.6,1.2,0.6c1.2,0.6,1.8,1.2,3,1.8
				c1.2,0.6,1.8,1.2,3,1.8c0.6,0.6,1.8,0.6,2.4,1.2c1.8,0.6,3,1.2,3.6,2.4l0.6,0.6c3,1.8,3.6,4.7,1.8,7.7c-0.6,1.2-1.2,2.4-2.4,3.6
				l-0.6,1.2l-0.6,0.6l0,0c-1.2,3-3.6,5.3-4.7,7.7c-0.6,1.2-1.8,2.4-2.4,3s-0.6,1.2-1.2,1.8c-0.6,0.6-1.2,1.8-1.8,2.4
				c-0.6,1.2-1.2,2.4-1.8,3.6c-1.2,2.4-3,4.1-4.1,6.5l-1.2,1.2c-3,4.1-6.5,8.3-10.1,11.8l0,0c-3,3-5.3,5.9-8.9,8.9
				c-0.6,0.6-1.2,0.6-1.2,1.2c-0.6,0.6-1.2,1.2-1.8,1.8c-1.2,1.2-2.4,2.4-3.6,3.6c-1.2,0.6-2.4,1.8-3.6,3c-2.4,1.8-4.1,3.6-7.1,5.3
				c-1.2,0.6-3,1.8-4.7,3c-1.8,1.2-4.1,2.4-5.9,3c-1.2,0.6-2.4,1.2-3,1.2l-1.2,0.6c-0.6,0-0.6,0.6-1.2,0.6c-0.6,0-0.6,0-1.2,0.6
				c-4.1,1.8-8.9,3.6-14.2,4.7l0,0c-3,1.2-6.5,1.8-9.5,2.4c-0.6,0-2.4,0.6-2.4,0.6c-1.8,0.6-4.1,0.6-5.9,1.2
				c-2.4,0.6-4.1,0.6-6.5,0.6c-0.6,0-1.2,0-2.4,0c-1.8,0-3,0-4.1,0C2330.1,469.4,2329.5,469.4,2329.5,469.4z"/>
			<path class="st1" d="M2326.6,232.5c0.6,0,1.2,0,1.8,0c1.8,0,4.1,0.6,5.9,0.6c3.6,0,6.5,1.2,10.1,1.8c2.4,0.6,5.3,1.2,7.7,2.4
				c3,1.2,6.5,2.4,9.5,3.6c2.4,1.2,4.7,2.4,7.1,3c1.8,1.2,4.1,1.8,5.9,3c3,1.2,5.3,3,7.7,4.1c3,1.8,5.3,4.1,8.3,5.9
				c3.6,2.4,6.5,4.7,9.5,7.7c0.6,0.6,1.2,0.6,1.8,1.2c0-0.6,0.6-0.6,0.6-1.2c0-1.2,0-2.4,0-4.1c0-1.2,0-2.4,0-3c0-1.2,0-1.8,0-3
				c0-1.2,0-1.8,0-3c0-3,0-5.3,0-8.3v-0.6c0.6,0,1.8-0.6,2.4-0.6c2.4-0.6,5.3-0.6,7.7-0.6c1.8,0,3.6-0.6,5.3-1.2
				c2.4-0.6,5.3-0.6,7.7-1.2c1.8,0,4.1-0.6,5.9-1.2c0.6,0,1.2,0,1.8,0c0.6,0.6,0.6,1.2,0.6,1.8c0,2.4,0,4.7,0,7.7
				c0,13,0,25.5,0,38.5c0,7.7,0,14.8,0,22.5c0,1.2,0,2.4,0,3.6c0,0.6,0,1.2,0,1.8c0,1.2,0,1.8,0,3c-0.6,0-1.2,0.6-1.2,0.6
				c-8.3,1.2-17.2,3-25.5,4.1c-1.2,0-2.4,0-3.6,0.6c-0.6-1.2-1.8-3-2.4-4.1c0-0.6,0-0.6-0.6-1.2c-1.8-2.4-3-5.3-5.3-7.1
				c-1.2-1.2-1.8-2.4-3-3.6c-4.1-5.9-8.3-11.3-13.6-16c-2.4-2.4-4.7-4.1-7.7-6.5c-1.2-0.6-1.8-1.8-3-2.4c-2.4-2.4-5.3-4.1-8.3-5.9
				c-2.4-1.8-5.3-3-8.3-4.1c-3.6-1.2-6.5-2.4-10.1-3.6c-1.2,0-2.4-0.6-3.6-0.6c-3.6-0.6-7.7-1.2-11.3-1.8c-1.2,0-1.8,0-3,0
				c-1.2,0-2.4,0-4.1,0c-0.6,0-1.2,0-1.8,0c-3,0-5.9,0-8.9,1.2c-3,0.6-5.9,1.8-8.3,2.4c-3,0.6-5.3,1.8-8.3,3c-0.6,0-1.2,0.6-1.8,0.6
				c-1.8,0.6-3.6,1.8-5.3,3c-1.8,1.8-3.6,2.4-5.3,4.1c-2.4,1.8-5.3,4.1-7.7,5.9c-1.8,1.8-3.6,3-5.3,4.7c-0.6,0.6-0.6,0.6-1.2,0.6
				c0,0-23.1,14.2-23.7,53.9c0,2.4,0,4.7,0.6,7.1c0,0.6,0,1.8,0,2.4c0.6,1.8,0.6,3,0,4.7c0,1.2,0,2.4,0.6,3.6c0.6,1.2,0.6,3,0.6,4.1
				c0.6,2.4,1.2,5.3,2.4,7.7c0.6,1.8,1.2,4.1,1.8,5.9c0.6,1.2,0.6,3,1.2,4.1c0.6,1.2,0.6,2.4,1.2,3c0.6,1.8,1.8,3.6,2.4,5.3
				c3,5.3,5.9,10.7,10.1,15.4c1.8,1.8,3.6,3.6,5.3,5.3c3,2.4,5.3,4.7,8.3,7.1c1.8,1.8,4.1,3,6.5,4.1c4.1,2.4,8.3,4.1,12.4,5.9
				c3,1.2,5.9,1.8,8.3,2.4c3.6,0.6,7.1,1.2,10.7,2.4c1.8,0,3,0.6,4.7,0.6c3,0,6.5,0.6,9.5,0.6c0.6,0,1.2,0,1.2,0
				c2.4,0,4.7-0.6,7.1-0.6c1.8-0.6,4.1-0.6,5.9-1.2c3,0,5.9-1.2,8.3-2.4c4.7-1.8,8.9-3.6,13.6-6.5c2.4-1.2,4.7-2.4,7.1-4.1
				c0.6-0.6,1.2-0.6,1.8-1.2c3-3,5.9-5.3,9.5-7.7c1.2-1.2,3-2.4,4.1-3.6c0.6-0.6,1.2-1.2,1.8-1.8c3.6-3.6,7.1-7.7,10.1-11.8
				c2.4-3.6,4.7-7.1,7.1-11.3c1.2-2.4,3-4.7,4.1-7.1c1.2-2.4,2.4-4.7,3.6-7.7c0.6-1.2,1.2-3,2.4-4.1l0.6-0.6c1.8,0.6,3.6,1.8,5.3,3
				s3,2.4,4.7,3c1.8,0.6,2.4,1.8,4.1,2.4c1.8,1.2,3.6,2.4,5.3,3.6c1.2,0.6,1.8,1.2,3,1.2c1.2,0.6,2.4,1.8,3.6,2.4
				c1.2,0.6,1.2,1.2,0.6,1.8c-0.6,1.2-1.8,3-3,4.1c0,0.6-0.6,0.6-0.6,1.2c-1.8,3.6-4.7,7.1-7.1,10.7c-1.2,1.2-1.8,3-3,4.1
				c-0.6,1.2-1.8,2.4-2.4,4.1c-1.2,2.4-2.4,4.1-4.1,5.9c-3.6,4.1-6.5,8.3-10.1,12.4c-2.4,3-5.3,5.9-8.3,8.3
				c-0.6,0.6-1.2,1.2-1.8,1.8c-1.8,1.8-3,3-4.7,4.7c-3.6,2.4-6.5,5.9-10.1,7.7c-1.2,1.2-3,1.8-4.1,2.4c-1.8,1.2-3.6,1.8-5.9,3
				c-1.2,0.6-2.4,1.2-4.1,1.8c-0.6,0.6-1.2,0.6-1.8,0.6c-4.1,1.8-8.9,3.6-13.6,4.7h-0.6c-3.6,1.2-6.5,1.8-10.1,2.4
				c-2.4,0.6-4.7,0.6-7.1,1.2c-1.8,0.6-3.6,0.6-5.9,0.6c-2.4,0-4.1,0-6.5,0c-0.6,0-0.6,0-1.2,0c-3.6,0-7.1-0.6-10.7-1.2
				c-1.2,0-3-0.6-4.1-0.6l0,0l0,0c-1.2,0-3,0-4.1-0.6c-1.8-0.6-4.1-0.6-5.9-1.2c-3.6-0.6-7.1-1.8-11.3-3c-0.6,0-1.2-0.6-1.8-0.6
				c-2.4-0.6-4.1-1.2-6.5-1.8c-3.6-1.2-7.1-2.4-10.7-4.1c-4.1-1.8-8.3-4.1-12.4-7.1c-0.6-0.6-1.8-1.2-2.4-1.8
				c-3.6-2.4-7.1-4.7-10.1-7.7c-1.8-1.8-3.6-3.6-5.3-4.7c-1.2-1.2-2.4-2.4-3.6-3.6c-3.6-4.1-7.1-8.3-9.5-13c-1.2-1.8-2.4-3.6-3-5.3
				c-1.2-2.4-2.4-4.7-3.6-7.7s-3-5.9-4.1-8.9c-1.8-3.6-2.4-7.1-3.6-10.7c-0.6-3-1.8-6.5-2.4-9.5c-0.6-3.6-1.8-7.1-2.4-10.7
				c-0.6-2.4-0.6-4.7-1.2-7.1c0-0.6,0-1.2,0-1.2c0-1.8,0-3.6,0-5.3c0-2.4-0.6-5.3,0-7.7c0-2.4,0-4.7,0-7.1c0-1.8-0.6-4.1,0-5.9
				c8.9-37.3,26.6-63.4,58.6-80.5c3.6-1.8,7.7-3.6,11.3-5.9c4.7-2.4,10.1-4.1,14.8-5.3c2.4-0.6,4.1-1.2,6.5-1.8
				c3-0.6,5.9-0.6,9.5-1.2c1.8-0.6,3.6-0.6,5.3-0.6c0.6,0,0.6,0,1.2,0h0.6c2.4,0,4.7-0.6,7.1-0.6
				C2325.4,232.5,2326,232.5,2326.6,232.5 M2326.6,224.8c-0.6,0-1.8,0-2.4,0c-1.2,0-1.8,0-3,0s-2.4,0-3.6,0h-0.6h-0.6h-0.6
				c-2.4,0-4.7,0-7.1,0.6c-1.2,0-3,0.6-4.7,0.6s-3,0.6-4.7,0.6c-1.8,0.6-3.6,0.6-4.7,1.2c-0.6,0-1.2,0.6-1.8,0.6
				c-6.5,1.8-11.8,3.6-16.6,5.9l-1.8,1.2c-3,1.8-6.5,3-9.5,4.7c-33.2,17.8-53.3,45-62.8,85.9c-0.6,2.4-0.6,4.7-0.6,6.5
				c0,0.6,0,1.2,0,1.2c0,0.6,0,1.8,0,2.4c0,1.8,0,3,0,4.1c0,3,0,5.9,0,8.9c0,0.6,0,0.6,0,1.2c0,1.2,0,1.8,0,3s0,2.4,0,3.6
				c0,1.2,0.6,2.4,0.6,3.6c0,1.2,0.6,1.8,0.6,3c0.6,3,1.2,5.3,1.8,7.7c0,1.2,0.6,1.8,0.6,3l1.2,4.7l1.2,4.7
				c1.2,4.7,2.4,8.3,4.1,11.8c0.6,1.2,1.2,2.4,1.8,4.1c0.6,1.8,1.8,3.6,2.4,4.7c1.2,2.4,2.4,5.3,4.1,7.7c0.6,1.2,1.2,2.4,1.8,3.6
				c0.6,0.6,1.2,1.8,1.2,2.4c2.4,4.7,5.9,9.5,10.7,14.2c1.2,1.8,3,3,4.1,4.1c0.6,0.6,1.8,1.8,2.4,2.4c1.2,1.2,1.8,1.8,3,2.4
				c3.6,3.6,7.1,6.5,11.3,8.9c0.6,0.6,1.2,0.6,1.8,1.2c4.7,3,8.9,5.9,13.6,7.7l0.6,0.6c3.6,1.8,7.1,3,10.7,4.1
				c0.6,0,1.2,0.6,1.8,0.6c1.8,0.6,3.6,1.2,5.3,1.2c0.6,0,0.6,0,1.2,0.6c3.6,1.2,7.7,2.4,11.8,3c0.6,0,1.2,0,1.2,0
				c1.2,0,3,0.6,4.1,0.6c1.8,0.6,4.1,0.6,5.9,0.6h0.6l0,0c0.6,0,1.8,0,2.4,0c3.6,0.6,7.7,1.8,12.4,1.8c0.6,0,1.2,0,1.2,0
				c1.2,0,3,0,4.1,0c0.6,0,1.2,0,2.4,0c2.4,0,4.7,0,7.1-0.6c1.8-0.6,3.6-0.6,5.9-1.2h1.2c0.6,0,1.2,0,1.2,0c3-0.6,6.5-1.2,10.1-2.4
				c5.3-1.2,10.1-3,14.8-4.7c0,0,0.6,0,0.6-0.6c0.6,0,0.6-0.6,1.2-0.6c0.6,0,0.6,0,1.2-0.6c1.2-0.6,2.4-1.2,3.6-1.8
				c1.8-1.2,4.1-1.8,5.9-3s3.6-1.8,4.7-3c3-1.8,5.3-3.6,7.7-5.9c1.2-1.2,2.4-1.8,3-2.4c1.8-1.2,3-2.4,4.1-3.6
				c0.6-0.6,1.2-1.2,1.2-1.2l0,0c0.6-0.6,0.6-0.6,1.2-1.2c3.6-3,7.1-6.5,9.5-9.5l0,0c3.6-4.1,7.1-8.3,10.1-12.4l0.6-0.6l0.6-0.6
				c1.8-1.8,3.6-4.1,4.7-7.1c0.6-0.6,1.2-1.8,1.8-3c0.6-0.6,1.2-1.2,1.8-2.4c0.6-0.6,0.6-1.2,1.2-1.8c0.6-1.2,1.2-1.8,2.4-3
				c1.8-2.4,3.6-4.7,5.3-7.7l0.6-0.6c0-0.6,0.6-0.6,0.6-1.2c0.6-1.2,1.8-2.4,2.4-3.6c3-4.7,1.8-9.5-3-13l-0.6-0.6
				c-1.2-0.6-3-1.8-4.7-3c-0.6,0-1.2-0.6-1.8-0.6c-0.6-0.6-1.8-1.2-2.4-1.8c-1.2-0.6-1.8-1.2-3-1.8l-0.6-0.6
				c-1.2-0.6-2.4-1.8-4.1-2.4c-0.6,0-1.8-1.2-2.4-1.8l-0.6-0.6c-2.4-1.8-4.7-3-7.1-3.6l-4.7-1.8l-3.6,3.6l0,0
				c-0.6,0-0.6,0.6-1.2,1.8c-1.2,1.8-2.4,3.6-3,5.3v0.6c-0.6,0.6-0.6,1.2-1.2,1.8c-0.6,1.8-1.8,3.6-2.4,5.3
				c-1.2,2.4-2.4,4.7-3.6,6.5l-0.6,1.2c-1.8,3.6-4.1,6.5-5.9,9.5c-2.4,3.6-5.3,6.5-8.9,10.7c-0.6,0.6-0.6,0.6-1.2,1.2
				c-0.6,0.6-1.8,1.2-2.4,1.8c-0.6,0.6-1.2,1.2-2.4,1.8c-0.6,0.6-1.8,1.2-2.4,2.4c-2.4,1.8-4.7,4.1-7.1,6.5l0,0
				c-0.6,0.6-1.8,1.2-2.4,1.2c-1.2,0.6-2.4,1.8-3,1.8h-0.6l-0.6,0.6c-2.4,1.8-5.3,3-8.3,4.1c-1.2,0.6-3,1.2-4.1,1.8
				c-1.8,1.2-4.1,1.8-5.9,1.8s-3,0.6-4.1,0.6c-0.6,0-1.2,0-1.8,0.6h-0.6c-1.8,0-3.6,0.6-4.7,0.6h-0.6c-1.8,0-3,0-4.7-0.6
				c-1.8,0-3.6,0-4.7-0.6c-1.2,0-3,0-3.6-0.6c-1.8-0.6-4.1-0.6-5.9-1.2c-1.2,0-3-0.6-4.1-0.6c-2.4-0.6-4.7-1.2-7.1-1.8
				c-4.1-1.8-7.7-3.6-11.3-5.3c-0.6-0.6-1.2-0.6-1.8-1.2c-1.8-1.2-3-1.8-4.1-3c-0.6-0.6-1.8-1.2-2.4-1.8c-1.8-1.8-4.1-3.6-5.9-4.7
				c-1.8-1.2-3-3-4.7-4.1c-3.6-3.6-6.5-8.3-8.9-13l-0.6-1.2c-0.6-1.2-1.2-2.4-1.8-4.1c-0.6-0.6-0.6-1.8-1.2-2.4
				c0-0.6-0.6-1.2-0.6-1.8c0-0.6-0.6-1.8-0.6-2.4c-0.6-1.2-0.6-2.4-1.2-3.6c-0.6-1.2-0.6-1.8-1.2-2.4l0,0c-0.6-2.4-1.2-4.1-1.8-6.5
				c0-0.6,0-0.6,0-1.2c0-1.2-0.6-2.4-0.6-3.6c0-0.6,0-0.6,0-1.2c0-2.4,0-4.7-0.6-6.5c0,0,0-0.6,0-1.2l0,0c0-1.8,0-3.6,0-5.3v-1.8
				c0-14.2,3.6-26.6,10.1-36.7c4.7-7.1,9.5-10.1,9.5-10.7l0,0l0,0l0,0c0.6,0,1.2-0.6,2.4-1.8c0.6-0.6,1.2-0.6,1.8-1.2
				c1.2-0.6,2.4-1.8,3.6-3l1.8-1.2c1.8-1.2,3.6-3,5.3-4.1c0.6-0.6,1.2-0.6,1.8-1.2c1.2-1.2,3-1.8,4.1-3.6c0.6-0.6,1.2-0.6,3-1.2l0,0
				c0.6,0,1.2-0.6,2.4-0.6c1.8-1.2,4.1-1.8,7.1-2.4c1.2-0.6,2.4-0.6,3.6-1.2c1.8-0.6,3.6-0.6,4.7-1.2c1.8-0.6,3.6-0.6,6.5-0.6h0.6
				c0.6,0,1.2,0,1.8,0c0.6,0,1.8,0,2.4,0c0.6,0,1.2,0,1.2,0c0.6,0,1.2,0,1.8,0c3.6,0.6,7.1,1.2,10.7,1.8c0.6,0,0.6,0,1.2,0.6
				c0.6,0,1.8,0.6,2.4,0.6c2.4,0.6,5.3,1.8,8.9,3c3,1.2,5.3,2.4,7.1,3.6c0.6,0.6,1.2,1.2,2.4,1.2c1.8,1.2,3.6,2.4,5.3,3.6
				c1.2,0.6,1.8,1.8,3.6,3c2.4,1.8,4.7,3.6,7.1,5.9c4.7,4.1,8.9,8.9,12.4,14.2c0,0.6,0.6,0.6,0.6,1.2c0.6,1.2,1.2,2.4,2.4,3
				c1.2,1.2,1.8,3,3,4.1c0.6,0.6,0.6,1.2,1.2,1.8v0.6v0.6c0.6,1.2,1.2,3,2.4,4.7l2.4,4.1l4.7-0.6c0.6,0,0.6,0,1.2,0
				c0.6,0,1.8,0,2.4-0.6c8.9-1.2,17.2-3,25.5-4.1c1.2,0,2.4-0.6,2.4-0.6l0,0l5.3-1.8l-0.6-5.9V316c0-0.6,0-1.2,0-1.8v-0.6
				c0-0.6,0-0.6,0-1.2s0-0.6,0-1.2s0-1.8,0-2.4c0-3.6,0-7.1,0-11.3c0-3.6,0-7.7,0-11.3c0-7.1,0-14.2,0-20.7c0-5.9,0-11.8,0-17.8
				c0-2.4,0-4.7,0-7.7l0,0c0-4.1-1.8-6.5-3.6-7.7l-2.4-1.8l-4.7-0.6h-0.6c-0.6,0-1.2,0-1.8,0c-0.6,0-1.8,0-2.4,0.6
				c-1.2,0-2.4,0.6-3.6,0.6s-2.4,0.6-3.6,0.6c-1.8,0-3,0.6-4.7,0.6c-1.2,0-1.8,0.6-3,0.6c-0.6,0-1.8,0.6-2.4,0.6
				c-1.2,0-3,0.6-4.1,0.6s-2.4,0-3,0.6c-0.6,0-1.8,0-2.4,0.6h-0.6l-5.3,1.2l-1.2,5.3l0,0c0,0.6-0.6,1.2-0.6,2.4s0,2.4,0,3.6
				c0,0.6,0,1.8,0,2.4c-0.6-0.6-1.2-1.2-1.8-1.2c-1.8-1.2-3.6-2.4-5.3-4.1c-2.4-1.8-5.9-3.6-9.5-5.3c-1.8-0.6-3.6-1.8-5.9-2.4
				c-0.6-0.6-1.8-0.6-2.4-1.2c-1.8-0.6-3-1.8-4.7-2.4c-3-1.2-6.5-2.4-10.1-3.6c-3-1.2-5.9-1.8-8.3-2.4c-0.6,0-0.6,0-1.2-0.6
				c-3-0.6-6.5-1.8-10.1-1.8c-0.6,0-1.8,0-3,0c-1.2,0-1.8,0-3,0C2328.3,224.8,2327.7,224.8,2326.6,224.8L2326.6,224.8z"/>
		</g>
		<g>
			<path class="st0" d="M2331.9,653.5c-8.9,0-18.4-1.2-27.2-3c-18.9-4.1-36.7-11.8-52.7-23.7c-0.6-0.6-1.8-1.2-4.1-3.6
				c-1.8-1.2-4.7-4.1-7.1-5.9l0,0c0,3,0,5.9,0,8.9c0,1.2,0,1.8,0,3v1.8c0,3.6,0,6.5-0.6,10.1c0,2.4-0.6,4.7-2.4,7.1l-1.2,1.2h-1.8
				l0,0h-0.6c-0.6,0-0.6,0-1.2,0c-0.6,0-1.2,0-1.8,0c-1.2,0-2.4,0-4.1-0.6c-3.6-0.6-7.1-0.6-10.1-0.6h-1.8c-2.4,0-4.1,0-6.5,0h-3
				c-0.6,0-1.2,0-1.8,0c-1.2,0-1.8-0.6-3-0.6l-3-1.2l-0.6-1.8c-1.2-2.4-1.2-4.7-0.6-6.5c0-0.6,0-0.6,0-1.2c0-10.1,0.6-20.1,0.6-30.2
				c0.6-15.4,1.2-31.4,0.6-46.8c0-3-0.6-6.5-0.6-9.5c0-1.2,0-2.4,0-3l0,0c0-0.6-0.6-2.4,0.6-4.7l1.2-1.8h1.8h0.6
				c0.6,0,1.8,0,2.4-0.6c1.2,0,3-0.6,4.7-0.6c1.2,0,1.8,0,3,0c0.6,0,1.8,0,2.4,0c3,0,5.3-0.6,8.3-0.6c2.4,0,5.3-0.6,7.7-0.6h0.6
				c0.6,0,1.2,0,1.2,0c0.6,0,1.8-0.6,2.4-0.6c1.8,0,4.7,0.6,5.9,0.6c1.8,0.6,3.6,1.8,4.1,4.1c0,0.6,0,1.2,0.6,1.8c0,0.6,0,1.2,0,1.8
				c0,1.2,0.6,3,0.6,4.1c1.2,11.8,14.2,31.4,22.5,39.7c9.5,10.1,21.9,15.4,39.1,18.4c1.2,0,1.8,0.6,3,0.6c1.8,0.6,3.6,0.6,5.3,0.6
				c3,0.6,5.3,0.6,7.7,0.6c0.6,0,0.6,0,1.2,0c29.6-0.6,55.1-14.8,70.5-37.9c14.2-21.9,18.9-49.1,13-75.8
				c-2.4-11.8-11.3-30.2-37.9-54.5c-13-11.8-27.8-20.7-42.6-29.6c-10.1-5.9-20.7-12.4-30.8-19.5c-1.2-1.2-2.4-1.8-4.1-3
				c-1.2-0.6-2.4-1.2-3-2.4c-0.6-0.6-1.8-1.2-2.4-1.8c-0.6-0.6-1.2-1.2-1.8-1.2c-1.8-1.2-4.1-3-5.9-4.1c-2.4-1.8-4.7-3.6-7.1-4.7
				c-0.6-0.6-1.8-1.2-2.4-1.8c-0.6-0.6-1.2-1.2-1.8-1.2l-0.6-1.2c-2.4-1.8-4.7-3.6-7.1-5.3c-1.2-1.2-2.4-2.4-4.1-3.6
				c-1.2-0.6-1.8-1.8-3-2.4c-32-29-49.7-60.4-53.3-94.1c0-1.8,0-3,0-4.7c0-0.6,0-1.2,0-2.4c0-0.6,0-1.8,0-2.4c0-1.2,0-3,0-4.1
				c0-5.3,0-11.3,1.2-16.6c0,0,0-0.6,0-1.2c0.6-1.8,1.2-3.6,1.2-5.9c0-1.2,0.6-2.4,0.6-3.6s0.6-2.4,1.2-3.6c0.6-1.2,0.6-2.4,1.2-4.1
				c0.6-2.4,1.8-4.7,2.4-7.1c1.2-4.7,3.6-9.5,5.3-14.2c0.6-1.2,1.2-1.8,1.2-3c0.6-1.8,1.8-3.6,3-5.9c22.5-37.9,61.6-60.4,105.4-60.4
				c7.1,0,14.8,0.6,21.9,1.8c1.8,0.6,3.6,0.6,5.3,1.2c0.6,0,1.2,0,1.2,0.6c2.4,0.6,5.3,1.2,7.7,1.8c1.2,0.6,3,1.2,4.7,1.8
				c1.8,0.6,3,1.2,4.7,1.8l1.8,0.6c0.6,0,1.2,0.6,1.2,0.6c5.3,3,10.7,5.9,15.4,10.1c3,2.4,5.9,4.7,8.9,7.7c0-3,0-5.9-0.6-9.5
				c0-0.6,0-1.2,0-2.4c0-0.6,0-1.8,0-2.4s0-1.2-0.6-1.8c0-0.6,0-1.2,0-1.8c-0.6-2.4,0.6-4.1,1.2-5.3c0.6-1.2,2.4-1.8,4.7-1.8h0.6
				c1.2,0,2.4,0,3,0s1.2,0,1.8,0c7.1-0.6,13-0.6,18.9-1.2c0.6,0,1.2,0,1.8,0c1.8,0,3.6,0,5.3,0c0.6,0,0.6,0,1.2,0h0.6h3l1.2,2.4l0,0
				c0,0.6,0.6,1.2,0.6,1.8c0,0.6,0,1.8,0,2.4v0.6c0,3,0,5.9,0,8.9l1.2,80.5c0,0.6,0,0.6,0,1.2c0,3-1.8,4.7-4.7,5.3
				c-0.6,0-1.8,0-2.4,0.6l-19.5,3c-1.8,0-10.1,1.2-10.1,1.2h-0.6h-2.4l-1.8-1.8c-1.2-1.8-1.8-3.6-2.4-5.3c0-1.2-0.6-3-1.8-4.1l0,0
				c0-0.6-0.6-0.6-0.6-1.2l-1.2-3c-0.6-1.8-1.8-3.6-2.4-4.7c0,0,0-0.6-0.6-0.6l-1.2-3c-1.8-3-4.1-5.9-5.9-8.3
				c-11.8-16-32-35.5-61.6-35.5c-1.8,0-4.1,0-5.9,0c-23.1,1.8-45,14.8-58.6,34.9c-17.8,26.1-20.1,62.8-5.3,90.6
				c15.4,29.6,44.4,48,72.8,65.7c5.9,3.6,11.8,7.7,17.8,11.3c1.8,1.2,3,1.8,4.7,3c1.2,0.6,1.8,1.2,3,1.8c4.1,2.4,7.7,4.7,11.3,6.5
				c0.6,0.6,1.2,0.6,2.4,1.2c0.6,0.6,1.2,1.2,2.4,1.2c3,1.8,5.3,3.6,7.7,5.3c1.2,0.6,2.4,1.8,3,2.4c0.6,0.6,0.6,0.6,1.2,1.2
				c0,0,0.6,0,0.6,0.6c1.2,1.2,2.4,1.8,4.1,3l0.6,0.6c0.6,0.6,1.2,0.6,1.8,1.2c1.2,0.6,2.4,1.8,3.6,3h0.6l0,0
				c1.2,0.6,24.3,20.1,41.4,43.2c1.2,0.6,1.8,1.8,1.8,2.4l0,0c0.6,0.6,0.6,1.8,1.2,2.4c1.2,1.8,1.8,3.6,3,4.7
				c0.6,0.6,1.2,1.8,1.8,2.4c0.6,0.6,1.2,1.2,1.2,1.8v0.6c0.6,1.2,1.8,2.4,2.4,3.6c1.2,2.4,2.4,4.7,3,7.1l0,0c0.6,1.8,1.2,3,1.8,4.7
				c1.8,4.1,3,9.5,3.6,14.8c4.7,29.6,1.2,60.4-10.7,87.6c-12.4,29-33.2,51.5-59.8,65.1C2365.1,649.9,2349.1,653.5,2331.9,653.5
				L2331.9,653.5z"/>
			<path class="st1" d="M2323,131.8c7.1,0,14.2,0.6,21.3,1.8c2.4,0.6,4.1,1.2,6.5,1.8c2.4,0.6,5.3,1.2,7.7,1.8
				c1.8,0.6,3,1.2,4.1,1.2c2.4,0.6,4.1,1.8,6.5,2.4c0.6,0,0.6,0,1.2,0.6c5.3,3,10.7,5.9,14.8,9.5c3.6,3,7.1,5.9,10.1,9.5
				c1.8,1.8,3,3.6,4.7,5.3c0,0,0,0,0.6,0V165c0-6.5,0-12.4-0.6-18.9c0-1.8,0-3,0-4.7c0-1.2-0.6-2.4-0.6-4.1s0.6-3,2.4-3l0,0
				c1.2,0,2.4,0,3.6,0c0.6,0,1.2,0,2.4,0c6.5-0.6,12.4-0.6,18.9-1.2c2.4,0,4.1-0.6,6.5-0.6c0.6,0,0.6,0,1.2,0c0.6,0,0.6,0,1.2,0
				c0,0.6,0.6,0.6,0.6,1.2s0,1.2,0,1.8c0,3.6,0,6.5,0,10.1c0,15.4,0,30.8,0,46.2c0,7.7,0,15.4,0,23.1c0,3,0,5.9,0,9.5
				c0,0.6,0,0.6,0,1.2c0,1.2-0.6,1.2-1.2,1.8c-1.2,0-1.8,0-3,0.6c-6.5,1.2-13,1.8-18.9,3c-3.6,0.6-6.5,1.2-10.1,1.2c0,0-0.6,0-1.2,0
				c-0.6-1.2-1.2-2.4-1.2-3.6c0-1.8-1.2-4.1-1.8-5.9c0-0.6-0.6-0.6-0.6-1.2c-1.2-2.4-2.4-5.3-3.6-7.7c0-0.6-0.6-0.6-0.6-1.2
				c-2.4-3.6-5.3-7.7-7.7-11.3c-16-21.9-37.9-37.3-65.1-37.3c-1.8,0-4.1,0-5.9,0c-24.9,1.8-47.4,16.6-61.6,36.7
				c-18.9,27.2-21.3,65.1-5.9,94.7c19.5,36.7,58.6,56.3,91.8,78.8c2.4,1.8,5.3,3,7.7,4.7c3.6,2.4,7.7,4.7,11.3,6.5
				c1.2,0.6,3,1.8,4.1,3c3.6,2.4,7.1,4.7,10.7,7.1c0.6,0.6,1.2,0.6,1.8,1.2c1.2,1.2,2.4,1.8,4.1,3c0.6,0.6,1.8,1.2,2.4,1.8
				c1.2,1.2,3,2.4,4.1,3c0,0,24.3,20.1,41.4,42.6c0.6,0.6,1.2,1.2,1.2,1.8c1.2,2.4,2.4,4.7,4.1,7.7c1.2,1.8,2.4,3,3,4.7
				c0.6,1.2,1.8,2.4,2.4,3.6c1.2,2.4,1.8,4.7,3,7.1c0.6,1.2,1.2,3,1.8,4.1c1.8,4.7,2.4,9.5,3.6,14.2c9.5,56.8-14.2,121.4-68.1,148.6
				c-13.6,7.1-29,10.1-45,10.1c-8.9,0-17.8-1.2-26.6-3c-18.9-4.1-36.1-11.8-51.5-23.1c-1.8-1.2-14.8-13.6-16.6-13.6l0,0
				c-0.6,0-0.6,0.6-0.6,1.2c0,5.3-0.6,10.7,0,16c0,0.6,0,1.8,0,2.4c0,4.1,0,7.7-0.6,11.8c0,1.8,0,3-1.8,4.7h-0.6h-0.6
				c-1.8,0-3.6-0.6-5.9-0.6c-3.6-0.6-7.1-0.6-10.7-0.6c-0.6,0-0.6,0-1.2,0s-0.6,0-1.2,0c-3,0-5.9,0-8.9,0l0,0l0,0
				c-0.6,0-0.6,0-1.2,0c-1.2-0.6-2.4-0.6-3.6-1.2c-0.6-1.8-0.6-4.1-0.6-5.9c0-26.1,2.4-51.5,1.2-77c0-4.1-0.6-8.3-0.6-12.4
				c0-0.6-0.6-1.2,0-2.4c1.2,0,1.8-0.6,3-0.6c1.8,0,3-0.6,4.7-0.6s3.6,0,5.3-0.6c3,0,5.3-0.6,8.3-0.6c2.4,0,5.3-0.6,7.7-0.6
				c1.2,0,1.8,0,3-0.6c0.6,0,0.6,0,1.2,0c1.8,0,4.1,0.6,4.7,0.6s1.2,0.6,1.2,1.2s0,0.6,0,1.2c0,1.8,0.6,3.6,0.6,5.9
				c1.2,13,14.8,33.8,23.7,42.6c11.3,11.8,24.9,16.6,40.9,19.5c3,0.6,5.9,1.2,8.9,1.2c3,0.6,5.3,0.6,8.3,0.6c0.6,0,0.6,0,1.2,0
				c30.2-0.6,57.4-14.2,74-39.7c15.4-23.1,19.5-52.1,13.6-78.8c-4.7-21.3-23.1-42-39.1-56.3c-22.5-20.1-49.7-32-74-49.7
				c-2.4-1.8-4.7-3-7.1-4.7c-1.2-1.2-3-1.8-4.1-3c-4.1-3-8.9-5.9-13-9.5c-1.2-1.2-3-2.4-4.1-3c-2.4-1.8-4.7-3.6-7.1-5.3
				c-2.4-2.4-4.7-4.1-7.1-5.9c-26.6-24.3-48-54.5-51.5-91.8c0-2.4,0-4.1-0.6-6.5c0-2.4,0-4.1-0.6-6.5c0-5.3,0-10.7,1.2-16v-0.6
				c1.2-3,1.2-6.5,2.4-10.1c0-1.2,0.6-1.8,0.6-3c1.2-3.6,2.4-7.1,3.6-11.3c1.8-5.9,4.1-11.3,6.5-16.6c0.6-1.8,1.8-3.6,3-5.3
				C2243.1,153.2,2281.6,131.8,2323,131.8 M2323,123.5c-45,0-85.9,23.1-109,62.8c-1.2,2.4-2.4,4.1-3,5.9c-0.6,1.2-1.2,1.8-1.2,3
				c-1.8,4.7-4.1,9.5-5.9,14.8c-0.6,2.4-1.2,4.7-2.4,7.1c-0.6,1.2-0.6,2.4-1.2,4.1c-0.6,1.2-0.6,2.4-1.2,3.6c0,1.2-0.6,2.4-0.6,3.6
				c-0.6,1.8-0.6,3.6-1.2,5.3c-0.6,0.6-0.6,1.8-0.6,2.4c-1.2,5.3-1.2,11.3-1.2,17.2c0,1.2,0,3,0,4.1c0,0.6,0,1.8,0,2.4
				c0,0.6,0,1.2,0,1.8c0,1.8,0,3,0,4.7c3.6,34.9,21.9,67.5,54.5,96.5c1.2,1.2,1.8,1.8,3,2.4c1.2,1.2,2.4,2.4,3.6,3.6
				c2.4,2.4,4.7,4.1,7.1,5.9l0.6,0.6c0.6,0.6,1.2,0.6,1.8,1.2c0.6,0.6,1.8,1.2,2.4,1.8c2.4,1.8,4.7,3.6,7.1,4.7
				c1.8,1.2,4.1,3,5.9,4.1c0.6,0.6,1.2,0.6,1.8,1.2c0.6,0.6,1.8,1.2,2.4,1.8c1.2,0.6,2.4,1.2,3,2.4c1.2,0.6,2.4,1.8,3.6,2.4
				c10.1,7.1,20.7,13.6,31.4,20.1c15.4,8.9,29.6,17.8,42,29c11.8,10.7,32,31.4,36.7,52.1c5.9,25.5,1.2,52.1-12.4,72.8
				c-7.7,11.3-17.2,20.1-29,26.6c-11.8,5.9-24.3,9.5-38.5,9.5h-0.6c-2.4,0-4.7,0-7.1-0.6c-1.8,0-3.6-0.6-5.3-0.6
				c-1.2,0-2.4-0.6-3-0.6c-16.6-2.4-27.2-7.7-36.7-17.2c-8.9-8.9-20.7-27.8-21.3-37.3c0-1.8-0.6-3-0.6-4.7c0-0.6,0-1.2,0-1.8
				c0-0.6,0-1.2-0.6-2.4c-1.2-3.6-3.6-5.9-7.1-7.1c-1.2-0.6-4.1-0.6-6.5-0.6c-1.2,0-2.4,0-3.6,0.6h-0.6h-0.6c-2.4,0-4.7,0.6-7.7,0.6
				c-3,0-5.9,0.6-8.3,0.6c-0.6,0-1.2,0-2.4,0s-1.8,0-3,0c-1.8,0-3.6,0.6-5.3,0.6c-1.2,0-1.8,0-2.4,0.6h-0.6l-3.6,0.6l-1.8,3.6
				c-1.8,3-1.2,5.9-1.2,7.1l0,0c0,1.2,0,1.8,0,3c0,3,0.6,5.9,0.6,9.5c0.6,15.4,0,31.4-0.6,46.8c-0.6,10.1-0.6,20.1-0.6,30.2
				c0,0.6,0,0.6,0,1.2c0,2.4,0,4.7,1.2,8.3l1.2,3.6l3.6,1.2c0.6,0,0.6,0,1.2,0.6c1.2,0.6,1.8,0.6,3,1.2s2.4,0.6,3,0.6l0,0l0,0
				c0.6,0,1.8,0,2.4,0c2.4,0,4.1,0,6.5,0h1.2h1.2c3,0,6.5,0,9.5,0.6c1.2,0,3,0.6,4.1,0.6c0.6,0,1.2,0,1.8,0c0.6,0,0.6,0,1.2,0h0.6
				l0,0h4.1l2.4-2.4c3.6-3.6,3.6-7.7,3.6-9.5c0-3.6,0-6.5,0.6-10.1v-1.8c0-1.2,0-1.8,0-3.6l0,0c0,0,0.6,0,0.6,0.6
				c3,2.4,3.6,3.6,4.7,4.1c16.6,11.8,34.9,20.1,54.5,24.3c9.5,1.8,18.9,3,28.4,3c17.8,0,34.9-3.6,48.6-10.7
				c27.2-13.6,48.6-36.7,61.6-66.9c11.8-27.8,16-59.8,10.7-90c-1.2-5.9-2.4-10.7-3.6-15.4c-0.6-1.8-1.2-3-1.8-4.7l0,0
				c-1.2-2.4-1.8-4.7-3-7.1c-0.6-1.8-1.8-3-2.4-4.1v-0.6c-0.6-0.6-1.2-1.2-1.2-1.8c-0.6-0.6-1.2-1.2-1.2-2.4c-0.6-1.8-1.8-3-2.4-4.7
				c-0.6-0.6-0.6-1.8-1.2-2.4l0,0c-0.6-0.6-1.2-2.4-2.4-3.6c-17.2-23.1-40.9-42.6-42-43.2l-0.6-0.6l-0.6-0.6c-1.2-0.6-2.4-1.8-3-2.4
				c-0.6-0.6-1.2-1.2-1.8-1.2l-0.6-0.6c-1.2-1.2-2.4-1.8-3.6-3c0,0,0,0-0.6,0s-0.6-0.6-1.2-1.2c-1.2-0.6-1.8-1.2-3-2.4
				c-2.4-1.8-5.3-3.6-8.3-5.3c-0.6-0.6-1.2-0.6-1.8-1.2c-0.6-0.6-1.2-1.2-2.4-1.2c-3.6-2.4-7.7-4.1-11.3-6.5c-1.2-0.6-1.8-1.2-3-1.8
				c-1.8-1.2-3-1.8-4.7-2.4c-5.9-4.1-11.8-7.7-17.8-11.3c-27.8-17.8-56.3-35.5-71.6-63.9c-14.2-26.6-11.8-61.6,5.3-86.5
				c6.5-9.5,14.8-17.2,24.3-23.1c10.1-5.9,20.7-9.5,31.4-10.7c1.8,0,3.6,0,5.3,0c27.8,0,47.4,18.4,58.6,33.8c1.8,3,4.1,5.3,5.9,8.3
				c0.6,1.2,1.2,1.8,1.8,3l0,0c0.6,1.8,1.8,3,2.4,4.7c0.6,1.2,1.2,1.8,1.2,3c0,0.6,0.6,1.2,0.6,1.2l0,0c0.6,1.2,1.2,1.8,1.2,3
				c0.6,2.4,1.2,4.7,3,7.1l3,3.6l4.7-0.6l0,0c0.6,0,0.6,0,1.2,0l4.1-0.6c1.8,0,3.6-0.6,5.9-0.6c3.6-0.6,6.5-1.2,10.1-1.2
				c3-0.6,6.5-0.6,9.5-1.2h0.6c0.6,0,1.8,0,3-0.6c4.1-0.6,7.1-4.1,7.7-8.9c0-0.6,0-1.2,0-1.8l0,0v-9.5v-23.1v-46.2v-1.2
				c0-3,0-5.9,0-8.9l0,0c0-0.6,0-1.8,0-3c0-1.2-0.6-2.4-1.2-3l0,0l-1.8-4.7h-5.3h-0.6c-0.6,0-0.6,0-1.2,0c-0.6,0-0.6,0-1.2,0
				c-1.8,0-3.6,0-5.3,0.6c-0.6,0-1.2,0-1.8,0c-5.9,0.6-11.8,0.6-18.9,1.2c-0.6,0-1.2,0-1.8,0s-1.8,0-3,0h-0.6c-3,0-5.9,1.2-7.7,3.6
				c-1.8,2.4-3,5.3-2.4,8.3c0,0.6,0,1.2,0.6,1.8c0,0.6,0,1.2,0,1.8c0,0.6,0,1.2,0,2.4c0,0.6,0,1.2,0,1.8c-0.6-0.6-1.2-1.2-1.8-1.8
				c-5.3-4.1-10.7-7.1-16-10.1c-0.6,0-1.2-0.6-1.8-0.6s-1.2-0.6-1.8-0.6c-1.8-0.6-3-1.2-4.7-1.8c-5.3-4.1-7.1-4.1-8.3-4.7
				c-2.4-0.6-5.3-1.2-7.7-1.8c-0.6,0-1.2,0-1.2-0.6c-1.8-0.6-3.6-1.2-5.3-1.2C2338.4,124.1,2330.7,123.5,2323,123.5L2323,123.5z"/>
		</g>
		<g>
			<path class="st0" d="M2341.4,430.9l3.6-0.6c2.4,0,4.7-1.2,7.1-1.8c1.2-0.6,3-1.2,4.1-1.8c3-1.2,5.9-2.4,8.9-4.1h0.6h0.6
				c1.2-0.6,2.4-1.2,4.1-2.4c0.6-0.6,1.2-1.2,2.4-1.2l0.6-0.6c2.4-2.4,4.7-4.1,7.1-5.9c1.2-0.6,1.8-1.2,3-2.4
				c0.6-0.6,1.2-1.2,2.4-1.8c0.6-0.6,1.8-1.2,2.4-1.8c0.6-0.6,1.2-1.2,1.2-1.2c4.1-4.1,7.1-7.7,9.5-11.3c2.4-3,4.1-6.5,5.9-9.5
				l0.6-1.2c1.2-2.4,2.4-4.1,4.1-7.1c1.2-1.8,1.8-3.6,2.4-5.3c0.6-0.6,1.2-2.4,1.2-2.4c0.6-1.2,1.2-3,2.4-4.7
				c0.6-0.6,0.6-0.6,1.2-1.2l0,0l1.8-1.8l2.4,0.6c2.4,0.6,4.1,1.8,6.5,3.6l0.6,0.6c1.2,0.6,2.4,1.8,3.6,1.8c1.2,0.6,2.4,1.2,3,1.8
				c0.6,0.6,0.6,0.6,1.2,0.6c1.2,0.6,1.8,1.2,3,1.8s1.8,1.2,3,1.8c0.6,0.6,1.8,0.6,2.4,1.2c1.8,0.6,3,1.2,3.6,2.4l0.6,0.6
				c2.4,1.8,3.6,4.7,1.8,7.7c-0.6,1.2-1.2,2.4-2.4,3.6l-0.6,1.2l-0.6,0.6l0,0c-1.2,3-3.6,5.3-4.7,7.7c-0.6,1.2-1.8,2.4-2.4,3
				c-0.6,0.6-0.6,1.2-1.2,1.8c-0.6,0.6-1.2,1.8-1.8,2.4c-0.6,1.2-1.2,2.4-1.8,3.6c-1.2,2.4-3,4.1-4.1,6.5l-1.2,1.2
				c-3,4.1-6.5,8.3-10.1,11.8l0,0c-3,3-5.3,5.9-8.9,8.9c-0.6,0.6-1.2,0.6-1.2,1.2c-0.6,0.6-1.2,1.2-1.8,1.8
				c-1.2,1.2-2.4,2.4-3.6,3.6c-1.2,0.6-2.4,1.8-3.6,3c-2.4,1.8-4.1,3.6-7.1,5.3c-1.2,0.6-3,1.8-4.7,3s-4.1,2.4-5.9,3
				c-1.2,0.6-2.4,1.2-3,1.2l-1.2,0.6c-0.6,0-0.6,0.6-1.2,0.6s-0.6,0-1.2,0.6c-4.1,1.8-8.9,3.6-14.2,4.7l0,0c-3,1.2-6.5,1.8-9.5,2.4
				c-0.6,0-2.4,0.6-2.4,0.6c-1.8,0.6-4.1,0.6-5.9,1.2l-5.3,0L2341.4,430.9z"/>
			<path class="st1" d="M2418.3,365.1c1.8,0.6,3.6,1.8,5.3,3c1.8,1.2,3,2.4,4.7,3c1.8,0.6,2.4,1.8,4.1,2.4c1.8,1.2,3.6,2.4,5.3,3.6
				c1.2,0.6,1.8,1.2,3,1.2c1.2,0.6,2.4,1.8,3.6,2.4s1.2,1.2,0.6,1.8c-0.6,1.2-1.8,3-3,4.1c0,0.6-0.6,0.6-0.6,1.2
				c-1.8,3.6-4.7,7.1-7.1,10.7c-1.2,1.2-1.8,3-3,4.1c-0.6,1.2-1.8,2.4-2.4,4.1c-1.2,2.4-2.4,4.1-4.1,5.9c-3.6,4.1-6.5,8.3-10.1,12.4
				c-2.4,3-5.3,5.9-8.3,8.3c-0.6,0.6-1.2,1.2-1.8,1.8c-1.8,1.8-3,3-4.7,4.7c-3.6,2.4-6.5,5.9-10.1,7.7c-1.2,1.2-3,1.8-4.1,2.4
				c-1.8,1.2-3.6,1.8-5.9,3c-1.2,0.6-2.4,1.2-4.1,1.8c-0.6,0.6-1.2,0.6-1.8,0.6c-4.1,1.8-8.9,3.6-13.6,4.7h-0.6
				c-3.6,1.2-6.5,1.8-10.1,2.4c-2.4,0.6-4.7,0.6-7.1,1.2l2.4-30.8c3,0,5.9-1.2,8.3-2.4c4.7-1.8,8.9-3.6,13.6-6.5
				c2.4-1.2,4.7-2.4,7.1-4.1c0.6-0.6,1.2-0.6,1.8-1.2c3-3,5.9-5.3,9.5-7.7c1.2-1.2,3-2.4,4.1-3.6c0.6-0.6,1.2-1.2,1.8-1.8
				c3.6-3.6,7.1-7.7,10.1-11.8c2.4-3.6,4.7-7.1,7.1-11.3c1.2-2.4,3-4.7,4.1-7.1c1.2-2.4,2.4-4.7,3.6-7.7c0.6-1.2,1.2-3,2.4-4.1
				C2417.8,365.7,2418.3,365.7,2418.3,365.1 M2416.6,356.3l-3.6,3.6l0,0c-0.6,0-0.6,0.6-1.2,1.8c-1.2,1.8-2.4,3.6-3,5.3v0.6
				c-0.6,0.6-0.6,1.2-1.2,1.8c-0.6,1.8-1.8,3.6-2.4,5.3c-1.2,2.4-2.4,4.7-3.6,6.5l-0.6,1.2c-1.8,3.6-4.1,6.5-5.9,9.5
				c-2.4,3.6-5.3,6.5-8.9,10.7c-0.6,0.6-0.6,0.6-1.2,1.2c-0.6,0.6-1.8,1.2-2.4,1.8c-0.6,0.6-1.2,1.2-2.4,1.8
				c-0.6,0.6-1.8,1.2-2.4,2.4c-2.4,1.8-4.7,4.1-7.1,6.5l0,0c-0.6,0.6-1.8,1.2-2.4,1.2c-1.2,0.6-2.4,1.8-3,1.8h-0.6l-0.6,0.6
				c-2.4,1.8-5.3,3-8.3,4.1c-1.2,0.6-3,1.2-4.1,1.8c-1.8,1.2-4.1,1.8-5.9,1.8l-6.5,0.6l-0.6,6.5l-2.4,30.8l-0.6,10.7l10.1-2.4
				c1.8-0.6,3.6-0.6,5.9-1.2h1.2c0.6,0,1.2,0,1.2,0c3-0.6,6.5-1.2,10.1-2.4c5.3-1.2,10.1-3,14.8-4.7c0,0,0.6,0,0.6-0.6
				c0.6,0,0.6-0.6,1.2-0.6c0.6,0,0.6,0,1.2-0.6c1.2-0.6,2.4-1.2,3.6-1.8c1.8-1.2,4.1-1.8,5.9-3s3.6-1.8,4.7-3c3-1.8,5.3-3.6,7.7-5.9
				c1.2-1.2,2.4-1.8,3-2.4c1.8-1.2,3-2.4,4.1-3.6c0.6-0.6,1.2-1.2,1.2-1.2l0,0c0.6-0.6,0.6-0.6,1.2-1.2c3.6-3,7.1-6.5,9.5-9.5l0,0
				c3.6-4.1,7.1-8.3,10.1-12.4l0.6-0.6l0.6-0.6c1.8-1.8,3.6-4.1,4.7-7.1c0.6-0.6,1.2-1.8,1.8-3c0.6-0.6,1.2-1.2,1.8-2.4
				c0.6-0.6,0.6-1.2,1.2-1.8c0.6-1.2,1.2-1.8,2.4-3c1.8-2.4,3.6-4.7,5.3-7.7l0.6-0.6c0-0.6,0.6-0.6,0.6-1.2c0.6-1.2,1.8-2.4,2.4-3.6
				c3-4.7,1.8-9.5-3-13l-0.6-0.6c-1.2-0.6-3-1.8-4.7-3c-0.6,0-1.2-0.6-1.8-0.6c-0.6-0.6-1.8-1.2-2.4-1.8c-1.2-0.6-1.8-1.2-3-1.8
				l-0.6-0.6c-1.2-0.6-2.4-1.8-4.1-2.4c-0.6,0-1.8-1.2-2.4-1.8l-0.6-0.6c-2.4-1.8-4.7-3-7.1-3.6L2416.6,356.3L2416.6,356.3z"/>
		</g>
		<path class="st0" d="M2285.1,423.8c4.1,2.4,8.3,4.1,12.4,5.9c3,1.2,5.9,1.8,8.3,2.4c3.6,0.6,7.1,1.2,10.7,2.4c1.8,0,3,0.6,4.7,0.6
			c3,0,6.5,0.6,9.5,0.6s5.3,0,8.3-0.6c1.8-0.6,4.1-0.6,5.9-1.2c3,0,5.9-1.2,8.3-2.4c4.7-1.8,8.9-3.6,13.6-6.5
			c2.4-1.2,4.7-2.4,7.1-4.1c0.6-0.6,1.2-0.6,1.8-1.2c3-3,5.9-5.3,9.5-7.7c1.2-1.2,3-2.4,4.1-3.6c0.6-0.6,1.2-1.2,1.8-1.8
			c3.6-3.6,7.1-7.7,10.1-11.8l29,11.3c-1.2,2.4-2.4,4.1-4.1,5.9c-3.6,4.1-6.5,8.3-10.1,12.4c-2.4,3-5.3,5.9-8.3,8.3
			c-0.6,0.6-1.2,1.2-1.8,1.8c-1.8,1.8-3,3-4.7,4.7c-3.6,2.4-6.5,5.9-10.1,7.7c-1.2,1.2-3,1.8-4.1,2.4c-1.8,1.2-3.6,1.8-5.9,3
			c-1.2,0.6-2.4,1.2-4.1,1.8c-0.6,0.6-1.2,0.6-1.8,0.6c-4.1,1.8-8.9,3.6-13.6,4.7h-0.6c-3.6,1.2-6.5,1.8-10.1,2.4
			c-2.4,0.6-4.7,0.6-7.1,1.2c-1.8,0.6-3.6,0.6-5.9,0.6c-2.4,0-4.1,0-6.5,0c-4.1,0-7.7-0.6-11.8-1.2c-1.2-0.6-3-0.6-4.1-0.6
			c-1.8,0-3,0-4.1-0.6c-1.8-0.6-4.1-0.6-5.9-1.2c-3.6-0.6-7.1-1.8-11.3-3c-0.6,0-1.2-0.6-1.8-0.6c-2.4-0.6-4.1-1.2-6.5-1.8"/>
	</g>
	<g>
		<path class="st0" d="M2266.8,670.1l-0.6-2.4c-0.6-2.4-0.6-4.7,0-7.1c0-1.2,0-1.8,0-3c0-3.6,0-7.1,0-10.7c0-1.2,0-2.4,0-3
			c0-4.7,0-9.5,0-13.6v-1.2c0-1.8,0-3.6,0-5.3c0-2.4,0-5.3,0-7.7c0-1.2,0-2.4,0-3.6c0-3,0-5.9,0-9.5c0-2.4,0-4.7,0-7.1
			c0-1.2,0-1.8,0-3c0-1.8,0-3,0-4.7c0-2.4,0-4.7,0-7.1c0-0.6,0-1.8,0-2.4c0-3,0-5.9,0-8.9c0-2.4,0-5.3,0-8.3c0-1.8,0-3.6,0-5.3
			c0-3,0-5.3,0-7.7c0-3,0-5.3,0-7.7v-4.1l39.7,1.8v4.1c-0.6,16,0,32.6,0,48.6c0,7.7,0,16,0,23.7c0,2.4,0,4.1,0,6.5c0,3,0,6.5,0,9.5
			c0,3.6,0,7.7,0,11.3c0,1.8,0,3,0,4.7c0,1.2,0,3,0,4.1c0,3,0,5.9,0,8.9s0,5.3-0.6,7.7c0,1.8,0,3.6,0,5.3v4.7L2266.8,670.1z"/>
		<path class="st1" d="M2270.3,541l32,1.2c-0.6,24.3,0,48,0.6,72.2c0,5.3,0,10.7,0,16c0,5.3,0,10.7-0.6,16c0,4.1,0,8.9-0.6,13
			c0,4.1-0.6,8.9-0.6,13l-31.4-5.3c-0.6-3,0-5.9,0-8.9c0-4.7,0-8.9,0.6-13.6c0-5.3,0-10.1,0-15.4c0-4.1-0.6-8.9-0.6-13s0-8.3,0-12.4
			c0-3.6,0-7.1,0-10.7c0-4.1,0-7.7,0-11.8c0-3.6,0-7.1,0-10.7c0-3,0-5.9,0-8.9c0-4.7,0.6-8.9,0-13.6
			C2270.3,545.7,2270.3,543.4,2270.3,541 M2263.2,532.7l-0.6,7.7c0,2.4,0,5.3,0,8.3c0,2.4,0,4.7,0,7.1c0,1.8,0,3.6,0,5.3
			c0,3.6,0,5.9,0,8.3c0,3,0,5.9,0,8.9c0,0.6,0,1.8,0,2.4c0,2.4,0,4.7,0,7.1c0,1.8,0,3,0,4.7c0,1.2,0,2.4,0,3c0,2.4,0,4.7,0,6.5
			c0,3.6,0,6.5,0,9.5c0,1.2,0,2.4,0,3.6c0,3,0,5.3,0,7.7c0,1.8,0,3.6,0,5.3v1.2c0,4.7,0,9.5,0,13.6c0,1.2,0,2.4,0,3
			c0,3.6,0,7.1,0,10.7c0,0.6,0,1.8,0,2.4c0,2.4,0,4.7,0.6,7.7l1.2,5.3l5.3,1.2l31.4,5.3l8.9,1.8l0.6-8.9c0-1.8,0-3.6,0-5.3
			c0-2.4,0-5.3,0.6-8.3c0-3,0-5.9,0-8.9c0-1.2,0-2.4,0-4.1c0-1.8,0-3.6,0-4.7c0-3.6,0-7.7,0-11.3c0-3.6,0-6.5,0-10.1
			c0-1.8,0-4.1,0-5.9c0-7.7,0-16,0-23.7c0-16-0.6-32,0-48v-7.7l-8.3,1.2l-32-1.2L2263.2,532.7L2263.2,532.7z"/>
	</g>
	<path class="st0" d="M2301.7,706.2c0-7.1,0.6-13.6,0.6-20.7c0-6.5,0-13.6,0.6-20.7c0-8.3,0.6-16.6,0.6-25.5c0-8.3,0-16.6,0-24.9
		c0-37.9-1.2-75.2-0.6-113.1l-32-2.4c0,3.6,0,7.7,0,11.3c0.6,7.1,0,14.2,0,21.3c0,4.7,0,8.9,0,13.6c0,5.9,0,11.3,0,17.2
		s0,12.4,0,18.4c0,5.3,0,10.7,0,16c0,6.5,0,13,0,19.5c0,7.1,0.6,13.6,0.6,20.7c0,8.3,0,16,0,24.3c0,7.1-0.6,14.2-0.6,21.3
		c0,4.7-0.6,9.5,0,14.2L2301.7,706.2z"/>
</g>
<rect x="597.1" y="105.8" class="st2" width="3401.7" height="618"/>
<path d="M718,526.2c-17.9,0-50.2-7.8-50.2-22.9c0-1.2,2.3-6.2,6.6-14.4c13.6,8.9,28.4,14,42.4,14c15.9,0,32.7-7.4,32.7-19.4
	c0-12.1-16.7-17.5-34.6-23l-0.8-0.4l-2.3-0.8c-12.1-3.9-23-7.8-29.6-12.8c-10.1-7.8-15.6-18.3-15.6-29.6c0-24.1,28-43.6,62.2-43.6
	c9.3,0,23.7,1.6,35,5.8c7.8,2.7,16.7,7.8,16.7,15.6c0,5.4-3.5,10.9-5.8,14.8c-10.1-8.2-24.1-12.4-43.6-12.4
	c-12.1,0-32.3,3.9-32.3,18.3c0,10.9,15.6,17.9,40.8,28.4c4.7,1.9,15.2,6.2,19.4,8.6c14,8.2,22.6,20.2,22.6,32.3
	C782.2,506.3,752.2,526.2,718,526.2z"/>
<path d="M863.5,524.6V374.8H981v24.9h-91.4v35.8h66.9V462h-66.9v37h92.6v25.7H863.5z"/>
<path d="M1280.1,524.6V400.1h-46.7v-25.3h116.3v25.3h-45.5v124.5H1280.1z"/>
<path d="M1459.8,524.6V400.1h-47.1v-25.3h116.7v25.3h-45.9v124.5H1459.8z"/>
<path d="M1610.3,524.6V374.8h24.1v123.3h64.6v26.5H1610.3z"/>
<path d="M1767.5,524.6V374.8H1885v24.9h-91.4v35.8h66.9V462h-66.9v37h92.6v25.7H1767.5z"/>
<path d="M1121.4,373.1l48.3,155.1h-27.7l-35.7-111.4l-37,111.4h-26.5l52.1-155.1H1121.4z"/>
<path d="M1144.7,477.9H1072v24.5h72.7V477.9z"/>
<path d="M2788.7,525.5c-39.1,0-72.8-34.5-73.6-74.8v-1.2c0-29.2,18.9-75.2,69.5-75.2c35.4,0,46.5,17.7,46.9,20.6v0.4
	c-0.8,2.9-3.7,9-8.6,17.3c-4.9-4.5-16.4-13.6-31.2-13.6c-2.1,0-4.1,0-6.2,0.4c-29.2,3.3-46.1,21.4-46.1,50.2
	c0,29.2,22.2,51.8,51,51.8c17.3,0,27.1-6.6,33.7-13.2c6.2,9.5,7.8,14.4,7.8,16.4c0,0.4,0,1.2,0,1.2
	C2822.4,518.1,2806,525.5,2788.7,525.5z"/>
<path d="M2988.1,524.7l-34.9-58.4h-32.1v58.4h-24.7V375.8h60.8c33.7,0,57.2,18.5,57.2,45.2c0,18.5-11.1,32.5-30.8,39.9l-7,2.5
	l36.2,60.9h-24.7V524.7z M2925.6,442h30c16,0,32.1-7.4,32.1-21.4c0-9.5-8.2-20.1-32.1-20.1h-30V442z"/>
<path d="M3083.1,524.7V375.8h117.6v24.7h-92.1v35.8h67.4v25.9h-67.4v37h93.3v25.5H3083.1z"/>
<path d="M3469.2,524.7V400.9h-46.5v-25.1h116v25.1H3493v123.8H3469.2z"/>
<path d="M3626.7,375.8h-24.3v148.8h24.3V375.8z"/>
<path d="M3740.6,524.7l-47.3-148.8h27.6l34.5,106.9l34.1-106.9h25.1l-48.1,148.8H3740.6z"/>
<path d="M3330.6,375.8l46.9,148.8h-27.1l-34.9-106.5l-36.2,106.5h-25.9l51-148.8H3330.6z"/>
<path d="M3879.9,524.7V375.8h117.6v24.7h-92.1v35.8h67.4v25.9h-67.4v37h93.3v25.5H3879.9z"/>
<path d="M3355.3,473.7h-76.9v25.9h76.9V473.7z"/>
</svg>
