<?xml version="1.0" encoding="UTF-8"?>
<svg id="Layer_1" xmlns="http://www.w3.org/2000/svg" width="4717.4" height="900" version="1.1" xmlns:xlink="http://www.w3.org/1999/xlink" viewBox="0 0 4717.4 900">
  <!-- Generator: Adobe Illustrator 29.2.1, SVG Export Plug-In . SVG Version: 2.1.0 Build 116)  -->
  <defs>
    <style>
      .st0, .st1 {
        fill: #fff;
      }

      .st2 {
        fill: none;
      }

      .st3 {
        fill: #231f20;
      }

      .st1 {
        filter: url(#drop-shadow-1);
      }
    </style>
    <filter id="drop-shadow-1" x="2063" y="-18.8" width="522" height="940" filterUnits="userSpaceOnUse">
      <feOffset dx="0" dy="30"/>
      <feGaussianBlur result="blur" stdDeviation="20"/>
      <feFlood flood-color="#000" flood-opacity=".2"/>
      <feComposite in2="blur" operator="in"/>
      <feComposite in="SourceGraphic"/>
    </filter>
  </defs>
  <g>
    <path class="st1" d="M2524.9,306.4c0-41.9,0-85-5-126.3-3.2-28.9-9.5-56.7-23.4-82.5-32.2-59.7-105.5-90-174.2-85-69.4,4.3-137,31.4-169.2,91.1-35.4,64.1-30.3,157.7-29,227.9,0,14.1.6,28.9.6,43.1.6,28.9,0,202,0,267.9s29,105.9,54.3,134.9c34.8,39.4,98.5,51.7,151.5,52.9,42.3,1.2,86.5-8,120-33.3,32.8-24.6,54.9-62.8,64.4-102.2,9.5-39.4,6.9-80.1,7.6-120.1.6-75.7,1.3-151.5,1.9-227.3-.1-14.1.5-27.7.5-41.2Z"/>
    <path d="M2514.3,308.9c0-40.3,0-81.7-4.7-121.4-3-27.8-8.9-54.5-21.9-79.3-30.2-57.4-98.9-86.5-163.4-81.7-65.1,4.1-128.5,30.2-158.7,87.6-33.2,61.6-28.4,151.6-27.2,219.1,0,13.6.6,27.8.6,41.4.6,27.8,0,194.2,0,257.6s27.2,101.8,50.9,129.7c32.6,37.9,92.4,49.7,142.1,50.9,39.7,1.2,81.1-7.7,112.5-32,30.8-23.7,51.5-60.4,60.4-98.3,8.9-37.9,6.5-77,7.1-115.5.6-72.8,1.2-145.7,1.8-218.5-.1-13.6.5-26.6.5-39.6ZM2484.1,465.8c-.6,50.3-1.2,97.1-3,147.4-.6,26.1-3,46.8-9.5,72.2-7.1,25.5-20.1,49.7-41.4,65.1-15.4,11.3-33.2,20.7-52.1,24.9-55.7,11.8-117.8,1.2-158.1-28.4-34.3-24.9-51.5-68.1-51.5-110.1,0-123.8-3.6-190.1-2.4-305.5,0-20.1-.6-62.8-.6-82.9s7.1-76.4,13-93.6c11.8-33.8,34.3-57.4,65.1-77.6,52.1-33.8,124.3-29.6,178.2,2.4,14.8,8.9,27.8,19.5,37.3,33.8,11.3,17.2,16,37.3,18.9,56.8,7.1,46.2,7.1,85.9,7.1,132.6-.4,54.5-.4,109-1,162.9Z"/>
    <g>
      <g>
        <path class="st3" d="M2293.4,707.3c-6.5,0-13-.6-18.4-1.2h-12.5c-1.2,0-2.4,0-3.6-.6-1.2-.6-3-.6-4.7-.6h-13.7c-3.6,0-6.5,0-9.5-.6-.6,0-1.2,0-1.8-.6-3.6-.6-4.1-3-4.7-5.3v-7.7c-.6-1.8,0-3.6,0-4.7v-10.6c0-1.2,0-2.4-.6-3v-3.1c.6-2.4,2.4-4.1,4.7-4.1h34.5v-14.2c-.6-2.4-.6-4.7,0-6.5v-142.4h-37.8l-1.2-1.2c-1.8-1.8-2.4-4.1-1.2-6.5v-.6c-.6-1.8-.6-3.6,0-5.3v-7.7c0-1.8,0-3-.6-4.7v-9.6c0-1.2.6-1.8.6-1.8l1.2-1.8,2.4-.6h1.2c1.2,0,1.8,0,3-.6h8.4c8.3-.6,17.8-1.2,27.2-1.2h30.1c5.9,0,11.3,0,16.6.6,3.6,0,7.7.6,11.3.6s4.1,0,5.9.6h5.3c3,0,5.9,0,8.3.6,20.1,1.2,40.9,7.7,59.2,18.9,19.5,11.8,34.3,27.8,42.6,45.6,4.1,8.3,6.5,16.6,7.1,24.9v3.6c0,1.2,0,3,.6,4.1,1.2,14.2,2.4,28.4-1.2,42.6v.6c0,3-.6,5.9-1.8,9.5-.6,1.8-1.2,3.6-1.8,5.3-.6,1.2-.6,2.4-1.2,3.6-1.2,4.1-3,7.7-4.1,11.3l-.6,1.8c-.6,1.2-1.2,2.4-1.8,3.6,0,.6-.6,1.2-.6,1.2,0,1.8-1.2,3-1.8,4.1v.6c-1.2,1.8-1.8,3-3,4.7l-1.2,1.8c-1.2,2.4-2.4,4.1-4.1,5.3l-.6.6-.6.6c-11.8,17.8-27.8,31.4-48.6,39.1-16.6,6.5-36.7,9.5-60.4,9.5h-13.1c-4.7.6-9.5.6-14.2.6l.8.9ZM2316.5,665.2h14.9c2.4,0,5.3-.6,7.7-.6h4.8c1.8,0,3.6-.6,5.3-.6,1.8-.6,3-.6,4.7-1.2,3-.6,5.9-1.2,8.9-2.4,2.4-.6,4.1-1.2,5.9-1.8,1.2-.6,2.4-1.2,4.1-1.2s1.8-.6,2.4-1.2c20.1-14.8,32.6-33.2,36.7-54.5.6-1.8.6-4.1.6-5.9h0s.6-13.6-1.8-28.4c-3-18.9-8.3-32.6-16.6-38.5l-.6-.6-.6-.6c-.6-.6-1.2-1.2-1.2-1.8-1.2-.6-1.8-1.8-2.4-2.4l-.6-.6c-3.6-3-7.1-5.9-11.8-8.3-1.2-.6-2.4-1.2-3.6-1.8l-1.8-.6c-3-1.2-5.9-2.4-8.9-3.6l-1.2-.6c-3-1.2-5.3-1.8-7.7-2.4-1.8,0-3-.6-4.7-1.2-.6,0-1.2-.6-1.8-.6h-41.6c0,2.4-.6,5.3-.6,8.3v.6c0,4.7-.6,10.1-.6,15.4-.6,16,0,32.6,0,48.6v68.7c0,3,0,5.3-.6,8.3v14.9h12.5c-.4-3.4.2-3.4.2-3.4Z"/>
        <path class="st0" d="M2266.2,464.5h30.2c5.3,0,11.3,0,16.6.6,5.9,0,11.3.6,17.2.6s9.5.6,13.6.6c39.1,2.4,81.7,26.6,98.9,62.2,3.6,7.1,5.9,15.4,6.5,23.7v3.6c1.2,15.4,3,30.8-.6,46.2v1.2c0,3-.6,5.3-1.2,7.7-1.2,3-1.8,6.5-3,9.5-1.2,4.1-3,8.3-5.3,12.4-.6,1.8-1.8,3-2.4,4.7l-.6.6c0,1.2-.6,2.4-1.2,3.6-1.2,2.4-3,4.1-4.1,6.5,0,0,0,.6-.6.6-.6,1.8-2.4,3.6-3.6,4.7-.6.6-1.2,1.2-1.2,1.8-24.3,37.3-64.5,46.8-105.4,46.8h-13.1c-4.7.6-8.9.6-13.6.6h-.6c-5.9,0-11.8-.6-17.8-1.2h-15.4c-1.8-.6-3.6-.6-5.3-.6h-13.6c-3,0-5.9,0-8.9-.6h-1.2q-1.2-.6-1.8-1.8c0-2.4,0-4.7.6-7.7v-.6c-.6-2.4,0-4.7,0-6.5v-13.1c0-.6.6-1.2,1.2-1.2h3.6c1.2,0,2.4-.6,3.6-.6h29.7v-1.8c0-3,0-6.5.6-9.5,0-1.8,0-4.1.6-5.9v-.6c-.6-3,0-5.9,0-8.9,0-4.7,0-8.9.6-13.6v-15.4c0-4.1-.6-8.9-.6-13v-54.5c0-4.7.6-8.9,0-13.6v-25.5c0-1.8,0-3.6-.6-5.3,0-.6,0-1.2-.6-1.8h-1.2c-4.1,0-7.7-.6-11.8-.6h-26.7c-.6-.6-.6-1.2-.6-1.8.6-1.2,0-1.8,0-3v-4.1c0-3,0-5.3.6-8.3,0-2.4-.6-4.7-.6-7.1v-6.5s0-.6.6-.6c1.2,0,2.4-.6,4.1-.6s1.8,0,3-.6h5.4c8.2-1.1,17.1-1.7,26-1.7M2314.1,669.5h5.4c1.8,0,4.1,0,5.9-.6,2.4,0,4.1,0,6.5-.6,3.6-.6,7.1-.6,10.7-1.2h1.8c1.8,0,4.1-.6,5.9-1.2,4.7-1.2,8.9-2.4,13.6-3.6,2.4-.6,4.1-1.2,6.5-2.4,1.2-.6,1.8-.6,3-1.2,1.8-.6,3-1.2,4.1-1.8,19.5-14.2,33.8-33.2,38.5-56.8.6-2.4.6-4.1.6-6.5,0,0,2.4-54.5-19.5-70.5-.6-1.2-1.2-1.8-2.4-3-1.2-.6-1.8-1.8-3-2.4-3.6-3.6-8.3-5.9-12.4-8.9-1.2-.6-3-1.2-4.1-1.8-3.6-1.8-7.1-3-11.3-4.7-3-1.2-6.5-2.4-10.1-3-2.4-.6-4.1-1.2-6.5-1.8h-46.2c0,.6,0,1.2-.6,1.2,0,3.6-.6,6.5-.6,10.1,0,5.3-.6,10.7-.6,16-.6,24.3,0,48,.6,72.2v16c0,5.3,0,10.7-.6,16,0,4.1,0,8.9-.6,13,0,4.1-.6,8.9-.6,13v5.3c0,1.8,0,3.6-.6,5.3v2.4h5.3c4.2.9,7.8.9,11.3,1.5h0M2266.2,456.2h0c-9.5,0-18.9.6-27.2,1.2h-7.8c-1.2,0-1.8,0-3,.6h-1.2l-4.1.6-1.8,3.6c-.6.6-1.2,1.8-1.2,3.6v10.8c0,1.8.6,3,.6,4.1v13.6c-1.2,3.6,0,7.1,3,9.5l2.4,2.4h35.4v153h-30.4c-4.1,0-7.7,3.6-8.3,7.7v3.6c0,1.2,0,2.4.6,3.6v15.9c0,2.4-.6,4.7,0,7.7.6,4.7,3,7.7,7.7,8.9.6,0,1.2.6,1.8.6,3.6.6,6.5.6,10.1.6h13.2c1.2,0,2.4,0,3.6.6,1.8.6,3,.6,4.1.6h13c5.3.6,11.8,1.2,18.9,1.2h.6c4.7,0,9.5,0,14.2-.6h12.5c24.3,0,44.4-3.6,62.2-10.1,21.3-8.3,37.9-21.9,50.3-40.3l.6-.6.6-.6c1.2-1.2,3.6-3.6,4.7-6.5l1.2-1.8c1.2-1.8,1.8-3,3-4.7v-.6c.6-1.2,1.8-2.4,2.4-5.3,0,0,0-.6.6-.6.6-1.2,1.2-2.4,1.8-3.6,0-.6.6-1.2.6-1.8,1.8-3.6,3.6-7.7,4.7-11.8.6-1.2.6-2.4,1.2-3.6.6-1.8,1.2-3.6,1.8-5.3,1.2-3.6,1.8-7.1,1.8-10.1h0c3.6-14.8,2.4-29.6,1.2-43.8,0-1.2,0-3-.6-4.1v-3.6c-.6-8.9-3-17.8-7.1-26.6-8.9-18.4-24.3-34.9-44.4-47.4-18.9-11.8-40.9-18.4-61-19.5-3,0-5.9,0-8.3-.6h-5.3c-1.7,0-4.1,0-5.9-.6-3.6,0-7.7-.6-11.8-.6s-10.7-.6-16.6-.6h-29q-4.8,1.3-5.4,1.3h0ZM2308.8,506h37.4c.6,0,1.2.6,1.8.6,1.2.6,3,.6,4.7,1.2,2.4.6,4.7,1.2,7.1,2.4.6,0,.6.6,1.2.6,3,1.2,5.9,2.4,8.9,3.6l1.8.6h0c1.2.6,2.4,1.2,3.6,1.8,4.1,2.4,8.3,5.3,11.3,7.7l.6.6c.6.6,1.8,1.8,3,2.4l.6.6.6,1.2,1.2.6c7.1,5.3,12.4,17.8,14.8,35.5,1.8,14.8,1.8,27.8,1.8,27.8h0c0,1.8,0,3.6-.6,5.3-4.1,20.7-15.4,37.9-35.5,52.1-.6.6-1.2.6-1.2.6-1.8.6-3.6,1.2-4.7,1.8-1.2.6-3,1.2-4.7,1.8-3,.6-5.9,1.8-8.9,2.4-1.8.6-3,.6-4.7,1.2-1.2.6-3,.6-4.1.6h-4.8c-2.4,0-5.3.6-7.7.6h-23.8v-10.1c0-2.4,0-5.3.6-8.3v-68.7c0-16-.6-32,0-48,0-4.7.6-10.1.6-14.8v-.6c-.9,0-.9-1.9-.9-3.1h0Z"/>
      </g>
      <g>
        <path class="st3" d="M2329.5,452.1c-4.1,0-7.7-.6-11.3-1.8h-4.2c-1.8,0-3.6,0-5.3-.6-1.2-.6-3-.6-4.1-.6h-1.2c-4.1-.6-8.3-1.8-11.3-3-.6,0-1.2-.6-1.8-.6-1.8-.6-3.6-.6-4.7-1.2-.6,0-1.2-.6-1.8-.6-3.6-1.2-7.1-2.4-10.1-4.1l-.6-.6c-4.1-1.8-8.3-4.1-13-7.7-.6-.6-1.8-1.2-2.4-1.2-3.6-2.4-7.1-4.7-10.7-8.3-1.2-1.2-1.8-1.8-3-3-.6-.6-1.8-1.2-2.4-2.4-1.2-1.2-2.4-2.4-3.6-3.6-4.1-4.7-7.7-9.5-10.1-13.6-.6-.6-1.2-1.8-1.2-2.4-.6-1.2-1.2-1.8-1.8-3-1.2-2.4-3-5.3-4.1-7.7-.6-1.8-1.8-3.6-2.4-4.7-.6-1.2-1.2-2.4-1.8-4.1-1.8-3.6-3-7.1-3.6-11.3l-2.4-9.5c0-1.2-.6-1.8-.6-3-.6-2.4-1.2-5.3-1.8-7.7,0-1.2-.6-1.8-.6-3s-.6-3-.6-4.1v-7.2c0-3-.6-5.3,0-8.3v-14.2c9.5-39.7,28.4-65.7,61-82.9,3-1.8,6.5-3,9.5-4.7l1.8-1.2c4.7-2.4,9.5-4.1,16-5.3.6,0,1.2-.6,1.8-.6,1.2-.6,3-.6,4.7-1.2,1.8,0,3-.6,4.7-.6s3-.6,4.7-.6c2.4-.6,4.1-.6,6.5-.6h19.1c3.6,0,6.5,1.2,9.5,1.8l1.2.6c2.4.6,5.3,1.2,8.3,2.4,3.6,1.2,7.1,2.4,10.1,3.6,1.8.6,3,1.2,4.7,2.4.6.6,1.8.6,2.4,1.2,1.8,1.2,4.1,1.8,5.9,2.4,3.6,1.2,5.9,3,8.3,4.7,1.8,1.2,3.6,2.4,5.3,3.6,1.2.6,1.8,1.2,3,1.8,1.8,1.2,3.6,3,5.3,4.1v-15.5h0l.6-2.4,2.4-.6h.6c.6,0,1.2,0,1.8-.6,1.2,0,1.8,0,3-.6,1.8,0,3-.6,4.7-.6s1.8,0,2.4-.6c.6,0,1.8-.6,3-.6,1.8,0,3-.6,4.7-.6s2.4,0,3.6-.6c1.2,0,2.4-.6,3.6-.6s1.8,0,2.4-.6h4.2l1.2,1.2c2.4,1.8,2.4,4.1,2.4,4.7h0v80.1l-3,1.2h-.6c-.6,0-1.2.6-1.8.6-8.3,1.2-17.2,3-25.5,4.1-.6,0-1.8,0-2.4.6h-1.2l-2.4.6-1.2-2.4c-.6-1.2-1.8-3-2.4-4.1v-.6s0-.6-.6-.6h0c-.6-.6-1.2-1.8-1.8-2.4-1.2-1.8-1.8-3-3-4.7-.6-1.2-1.8-1.8-2.4-3,0-.6-.6-.6-.6-1.2-4.1-5.9-8.3-10.7-13-15.4-2.4-2.4-4.7-4.1-7.1-5.9-1.2-.6-2.4-1.8-3-2.4-1.8-1.8-3.6-3-5.9-4.1-.6-.6-1.2-.6-2.4-1.2-2.4-1.8-5.3-3-7.7-4.1-3.6-1.8-6.5-2.4-9.5-3-.6,0-1.8-.6-2.4-.6s-1.2,0-1.2-.6c-3.6-.6-7.1-1.2-10.7-1.8h-8.4c-2.4,0-4.7,0-7.1,1.2-1.8.6-3,1.2-4.7,1.2-1.2.6-2.4.6-3.6,1.2-3,.6-5.3,1.8-7.7,3-.6.6-1.2.6-1.8.6h-.6c-1.8.6-3,1.2-4.1,2.4-1.2,1.2-2.4,2.4-4.1,3-.6.6-1.2.6-1.8,1.2-1.8,1.2-3.6,3-5.3,4.1l-1.8,1.2c-1.2,1.2-2.4,2.4-3.6,3-.6.6-1.2,1.2-1.8,1.8-.6.6-1.2,1.2-1.8,1.2h-.6c-.6.6-20.7,13.6-21.9,50.3v7.1h0v1.8c.6,1.8.6,3.6,0,5.9v2.4c0,1.2.6,2.4.6,3.6v1.2c.6,2.4,1.2,4.7,1.8,7.1.6,1.2.6,1.8,1.2,3s.6,2.4,1.2,3.6c0,.6.6,1.8.6,2.4s.6,1.2.6,1.8c0,1.2.6,1.8,1.2,3,.6,1.2,1.2,2.4,1.8,4.1l.6,1.8c3,5.3,5.9,10.1,9.5,14.2,1.2,1.8,3,3,4.7,4.7,1.8,1.8,4.1,3.6,5.9,4.7l2.4,1.8c1.2,1.2,3,2.4,4.7,3,.6.6,1.2.6,1.8,1.2,3.6,2.4,7.1,4.1,11.8,5.9,2.4,1.2,5.3,1.8,7.7,2.4,1.2,0,3,.6,4.1.6,1.8.6,4.1.6,6.5,1.2,1.2,0,3,.6,4.1.6,1.8,0,3.6,0,4.7.6,1.8,0,3,0,4.7.6h1.2c1.8,0,3.6,0,5.3-.6h.6c.6,0,1.2,0,2.4-.6,1.2,0,2.4-.6,4.1-.6s4.7-1.2,7.1-1.8c1.2-.6,3-1.2,4.1-1.8,3-1.2,5.9-2.4,8.9-4.1h1.2c1.2-.6,2.4-1.2,4.1-2.4.6-.6,1.2-1.2,2.4-1.2,0,0,.6,0,.6-.6,2.4-2.4,4.7-4.1,7.1-5.9,1.2-.6,1.8-1.2,3-2.4.6-.6,1.2-1.2,2.4-1.8.6-.6,1.8-1.2,2.4-1.8.6-.6,1.2-1.2,1.2-1.2,4.1-4.1,7.1-7.7,9.5-11.3,2.4-3,4.1-6.5,5.9-9.5l.6-1.2c1.2-2.4,2.4-4.1,4.1-7.1,1.2-1.8,1.8-3.6,2.4-5.3.6-.6,1.2-2.4,1.2-2.4.6-1.2,1.2-3,2.4-4.7q.6-.6,1.2-1.2h0l1.8-1.8,2.4.6c2.4.6,4.1,1.8,6.5,3.6l.6.6c1.2.6,2.4,1.8,3.6,1.8,1.2.6,2.4,1.2,3,1.8q.6.6,1.2.6c1.2.6,1.8,1.2,3,1.8,1.2.6,1.8,1.2,3,1.8.6.6,1.8.6,2.4,1.2,1.8.6,3,1.2,3.6,2.4l.6.6c3,1.8,3.6,4.7,1.8,7.7-.6,1.2-1.2,2.4-2.4,3.6l-.6,1.2-.6.6h0c-1.2,3-3.6,5.3-4.7,7.7-.6,1.2-1.8,2.4-2.4,3s-.6,1.2-1.2,1.8c-.6.6-1.2,1.8-1.8,2.4-.6,1.2-1.2,2.4-1.8,3.6-1.2,2.4-3,4.1-4.1,6.5l-1.2,1.2c-3,4.1-6.5,8.3-10.1,11.8h0c-3,3-5.3,5.9-8.9,8.9-.6.6-1.2.6-1.2,1.2-.6.6-1.2,1.2-1.8,1.8-1.2,1.2-2.4,2.4-3.6,3.6-1.2.6-2.4,1.8-3.6,3-2.4,1.8-4.1,3.6-7.1,5.3-1.2.6-3,1.8-4.7,3-1.8,1.2-4.1,2.4-5.9,3-1.2.6-2.4,1.2-3,1.2l-1.2.6c-.6,0-.6.6-1.2.6s-.6,0-1.2.6c-4.1,1.8-8.9,3.6-14.2,4.7h0c-3,1.2-6.5,1.8-9.5,2.4-.6,0-2.4.6-2.4.6-1.8.6-4.1.6-5.9,1.2-2.4.6-4.1.6-6.5.6h-6.5c-.6-3.5-1.2-3.5-1.2-3.5Z"/>
        <path class="st0" d="M2326.6,215.2h1.8c1.8,0,4.1.6,5.9.6,3.6,0,6.5,1.2,10.1,1.8,2.4.6,5.3,1.2,7.7,2.4,3,1.2,6.5,2.4,9.5,3.6,2.4,1.2,4.7,2.4,7.1,3,1.8,1.2,4.1,1.8,5.9,3,3,1.2,5.3,3,7.7,4.1,3,1.8,5.3,4.1,8.3,5.9,3.6,2.4,6.5,4.7,9.5,7.7.6.6,1.2.6,1.8,1.2,0-.6.6-.6.6-1.2v-22c.6,0,1.8-.6,2.4-.6,2.4-.6,5.3-.6,7.7-.6s3.6-.6,5.3-1.2c2.4-.6,5.3-.6,7.7-1.2,1.8,0,4.1-.6,5.9-1.2h1.8c.6.6.6,1.2.6,1.8v77.1c-.6,0-1.2.6-1.2.6-8.3,1.2-17.2,3-25.5,4.1-1.2,0-2.4,0-3.6.6-.6-1.2-1.8-3-2.4-4.1q0-.6-.6-1.2c-1.8-2.4-3-5.3-5.3-7.1-1.2-1.2-1.8-2.4-3-3.6-4.1-5.9-8.3-11.3-13.6-16-2.4-2.4-4.7-4.1-7.7-6.5-1.2-.6-1.8-1.8-3-2.4-2.4-2.4-5.3-4.1-8.3-5.9-2.4-1.8-5.3-3-8.3-4.1-3.6-1.2-6.5-2.4-10.1-3.6-1.2,0-2.4-.6-3.6-.6-3.6-.6-7.7-1.2-11.3-1.8h-8.9c-3,0-5.9,0-8.9,1.2-3,.6-5.9,1.8-8.3,2.4-3,.6-5.3,1.8-8.3,3-.6,0-1.2.6-1.8.6-1.8.6-3.6,1.8-5.3,3-1.8,1.8-3.6,2.4-5.3,4.1-2.4,1.8-5.3,4.1-7.7,5.9-1.8,1.8-3.6,3-5.3,4.7q-.6.6-1.2.6s-23.1,14.2-23.7,53.9c0,2.4,0,4.7.6,7.1v2.4c.6,1.8.6,3,0,4.7,0,1.2,0,2.4.6,3.6s.6,3,.6,4.1c.6,2.4,1.2,5.3,2.4,7.7.6,1.8,1.2,4.1,1.8,5.9.6,1.2.6,3,1.2,4.1.6,1.2.6,2.4,1.2,3,.6,1.8,1.8,3.6,2.4,5.3,3,5.3,5.9,10.7,10.1,15.4,1.8,1.8,3.6,3.6,5.3,5.3,3,2.4,5.3,4.7,8.3,7.1,1.8,1.8,4.1,3,6.5,4.1,4.1,2.4,8.3,4.1,12.4,5.9,3,1.2,5.9,1.8,8.3,2.4,3.6.6,7.1,1.2,10.7,2.4,1.8,0,3,.6,4.7.6,3,0,6.5.6,9.5.6h1.2c2.4,0,4.7-.6,7.1-.6,1.8-.6,4.1-.6,5.9-1.2,3,0,5.9-1.2,8.3-2.4,4.7-1.8,8.9-3.6,13.6-6.5,2.4-1.2,4.7-2.4,7.1-4.1.6-.6,1.2-.6,1.8-1.2,3-3,5.9-5.3,9.5-7.7,1.2-1.2,3-2.4,4.1-3.6.6-.6,1.2-1.2,1.8-1.8,3.6-3.6,7.1-7.7,10.1-11.8,2.4-3.6,4.7-7.1,7.1-11.3,1.2-2.4,3-4.7,4.1-7.1,1.2-2.4,2.4-4.7,3.6-7.7.6-1.2,1.2-3,2.4-4.1l.6-.6c1.8.6,3.6,1.8,5.3,3s3,2.4,4.7,3c1.8.6,2.4,1.8,4.1,2.4,1.8,1.2,3.6,2.4,5.3,3.6,1.2.6,1.8,1.2,3,1.2,1.2.6,2.4,1.8,3.6,2.4,1.2.6,1.2,1.2.6,1.8-.6,1.2-1.8,3-3,4.1,0,.6-.6.6-.6,1.2-1.8,3.6-4.7,7.1-7.1,10.7-1.2,1.2-1.8,3-3,4.1-.6,1.2-1.8,2.4-2.4,4.1-1.2,2.4-2.4,4.1-4.1,5.9-3.6,4.1-6.5,8.3-10.1,12.4-2.4,3-5.3,5.9-8.3,8.3-.6.6-1.2,1.2-1.8,1.8-1.8,1.8-3,3-4.7,4.7-3.6,2.4-6.5,5.9-10.1,7.7-1.2,1.2-3,1.8-4.1,2.4-1.8,1.2-3.6,1.8-5.9,3-1.2.6-2.4,1.2-4.1,1.8-.6.6-1.2.6-1.8.6-4.1,1.8-8.9,3.6-13.6,4.7h-.6c-3.6,1.2-6.5,1.8-10.1,2.4-2.4.6-4.7.6-7.1,1.2-1.8.6-3.6.6-5.9.6h-7.7c-3.6,0-7.1-.6-10.7-1.2-1.2,0-3-.6-4.1-.6h0c-1.2,0-3,0-4.1-.6-1.8-.6-4.1-.6-5.9-1.2-3.6-.6-7.1-1.8-11.3-3-.6,0-1.2-.6-1.8-.6-2.4-.6-4.1-1.2-6.5-1.8-3.6-1.2-7.1-2.4-10.7-4.1-4.1-1.8-8.3-4.1-12.4-7.1-.6-.6-1.8-1.2-2.4-1.8-3.6-2.4-7.1-4.7-10.1-7.7-1.8-1.8-3.6-3.6-5.3-4.7-1.2-1.2-2.4-2.4-3.6-3.6-3.6-4.1-7.1-8.3-9.5-13-1.2-1.8-2.4-3.6-3-5.3-1.2-2.4-2.4-4.7-3.6-7.7s-3-5.9-4.1-8.9c-1.8-3.6-2.4-7.1-3.6-10.7-.6-3-1.8-6.5-2.4-9.5-.6-3.6-1.8-7.1-2.4-10.7-.6-2.4-.6-4.7-1.2-7.1v-6.5c0-2.4-.6-5.3,0-7.7v-7.1c0-1.8-.6-4.1,0-5.9,8.9-37.3,26.6-63.4,58.6-80.5,3.6-1.8,7.7-3.6,11.3-5.9,4.7-2.4,10.1-4.1,14.8-5.3,2.4-.6,4.1-1.2,6.5-1.8,3-.6,5.9-.6,9.5-1.2,1.8-.6,3.6-.6,5.3-.6h1.8c2.4,0,4.7-.6,7.1-.6,2.1,2.9,2.7,2.9,3.3,2.9M2326.6,207.6h-10.8c-2.4,0-4.7,0-7.1.6-1.2,0-3,.6-4.7.6s-3,.6-4.7.6c-1.8.6-3.6.6-4.7,1.2-.6,0-1.2.6-1.8.6-6.5,1.8-11.8,3.6-16.6,5.9l-1.8,1.2c-3,1.8-6.5,3-9.5,4.7-33.2,17.8-53.3,45-62.8,85.9-.6,2.4-.6,4.7-.6,6.5v24.4c0,1.2.6,2.4.6,3.6s.6,1.8.6,3c.6,3,1.2,5.3,1.8,7.7,0,1.2.6,1.8.6,3l1.2,4.7,1.2,4.7c1.2,4.7,2.4,8.3,4.1,11.8.6,1.2,1.2,2.4,1.8,4.1.6,1.8,1.8,3.6,2.4,4.7,1.2,2.4,2.4,5.3,4.1,7.7.6,1.2,1.2,2.4,1.8,3.6.6.6,1.2,1.8,1.2,2.4,2.4,4.7,5.9,9.5,10.7,14.2,1.2,1.8,3,3,4.1,4.1.6.6,1.8,1.8,2.4,2.4,1.2,1.2,1.8,1.8,3,2.4,3.6,3.6,7.1,6.5,11.3,8.9.6.6,1.2.6,1.8,1.2,4.7,3,8.9,5.9,13.6,7.7l.6.6c3.6,1.8,7.1,3,10.7,4.1.6,0,1.2.6,1.8.6,1.8.6,3.6,1.2,5.3,1.2s.6,0,1.2.6c3.6,1.2,7.7,2.4,11.8,3h1.2c1.2,0,3,.6,4.1.6,1.8.6,4.1.6,5.9.6h3c3.6.6,7.7,1.8,12.4,1.8h7.7c2.4,0,4.7,0,7.1-.6,1.8-.6,3.6-.6,5.9-1.2h2.4c3-.6,6.5-1.2,10.1-2.4,5.3-1.2,10.1-3,14.8-4.7,0,0,.6,0,.6-.6.6,0,.6-.6,1.2-.6s.6,0,1.2-.6c1.2-.6,2.4-1.2,3.6-1.8,1.8-1.2,4.1-1.8,5.9-3s3.6-1.8,4.7-3c3-1.8,5.3-3.6,7.7-5.9,1.2-1.2,2.4-1.8,3-2.4,1.8-1.2,3-2.4,4.1-3.6.6-.6,1.2-1.2,1.2-1.2h0q.6-.6,1.2-1.2c3.6-3,7.1-6.5,9.5-9.5h0c3.6-4.1,7.1-8.3,10.1-12.4l.6-.6.6-.6c1.8-1.8,3.6-4.1,4.7-7.1.6-.6,1.2-1.8,1.8-3,.6-.6,1.2-1.2,1.8-2.4.6-.6.6-1.2,1.2-1.8.6-1.2,1.2-1.8,2.4-3,1.8-2.4,3.6-4.7,5.3-7.7l.6-.6c0-.6.6-.6.6-1.2.6-1.2,1.8-2.4,2.4-3.6,3-4.7,1.8-9.5-3-13l-.6-.6c-1.2-.6-3-1.8-4.7-3-.6,0-1.2-.6-1.8-.6-.6-.6-1.8-1.2-2.4-1.8-1.2-.6-1.8-1.2-3-1.8l-.6-.6c-1.2-.6-2.4-1.8-4.1-2.4-.6,0-1.8-1.2-2.4-1.8l-.6-.6c-2.4-1.8-4.7-3-7.1-3.6l-4.7-1.8-3.6,3.6h0c-.6,0-.6.6-1.2,1.8-1.2,1.8-2.4,3.6-3,5.3v.6c-.6.6-.6,1.2-1.2,1.8-.6,1.8-1.8,3.6-2.4,5.3-1.2,2.4-2.4,4.7-3.6,6.5l-.6,1.2c-1.8,3.6-4.1,6.5-5.9,9.5-2.4,3.6-5.3,6.5-8.9,10.7q-.6.6-1.2,1.2c-.6.6-1.8,1.2-2.4,1.8-.6.6-1.2,1.2-2.4,1.8-.6.6-1.8,1.2-2.4,2.4-2.4,1.8-4.7,4.1-7.1,6.5h0c-.6.6-1.8,1.2-2.4,1.2-1.2.6-2.4,1.8-3,1.8h-.6l-.6.6c-2.4,1.8-5.3,3-8.3,4.1-1.2.6-3,1.2-4.1,1.8-1.8,1.2-4.1,1.8-5.9,1.8s-3,.6-4.1.6-1.2,0-1.8.6h-.6c-1.8,0-3.6.6-4.7.6h-.6c-1.8,0-3,0-4.7-.6-1.8,0-3.6,0-4.7-.6-1.2,0-3,0-3.6-.6-1.8-.6-4.1-.6-5.9-1.2-1.2,0-3-.6-4.1-.6-2.4-.6-4.7-1.2-7.1-1.8-4.1-1.8-7.7-3.6-11.3-5.3-.6-.6-1.2-.6-1.8-1.2-1.8-1.2-3-1.8-4.1-3-.6-.6-1.8-1.2-2.4-1.8-1.8-1.8-4.1-3.6-5.9-4.7-1.8-1.2-3-3-4.7-4.1-3.6-3.6-6.5-8.3-8.9-13l-.6-1.2c-.6-1.2-1.2-2.4-1.8-4.1-.6-.6-.6-1.8-1.2-2.4,0-.6-.6-1.2-.6-1.8s-.6-1.8-.6-2.4c-.6-1.2-.6-2.4-1.2-3.6-.6-1.2-.6-1.8-1.2-2.4h0c-.6-2.4-1.2-4.1-1.8-6.5v-1.2c0-1.2-.6-2.4-.6-3.6v-1.2c0-2.4,0-4.7-.6-6.5v-1.2h0v-7.1c0-14.2,3.6-26.6,10.1-36.7,4.7-7.1,9.5-10.1,9.5-10.7h0c.6,0,1.2-.6,2.4-1.8.6-.6,1.2-.6,1.8-1.2,1.2-.6,2.4-1.8,3.6-3l1.8-1.2c1.8-1.2,3.6-3,5.3-4.1.6-.6,1.2-.6,1.8-1.2,1.2-1.2,3-1.8,4.1-3.6.6-.6,1.2-.6,3-1.2h0c.6,0,1.2-.6,2.4-.6,1.8-1.2,4.1-1.8,7.1-2.4,1.2-.6,2.4-.6,3.6-1.2,1.8-.6,3.6-.6,4.7-1.2,1.8-.6,3.6-.6,6.5-.6h7.8c3.6.6,7.1,1.2,10.7,1.8q.6,0,1.2.6c.6,0,1.8.6,2.4.6,2.4.6,5.3,1.8,8.9,3,3,1.2,5.3,2.4,7.1,3.6.6.6,1.2,1.2,2.4,1.2,1.8,1.2,3.6,2.4,5.3,3.6,1.2.6,1.8,1.8,3.6,3,2.4,1.8,4.7,3.6,7.1,5.9,4.7,4.1,8.9,8.9,12.4,14.2,0,.6.6.6.6,1.2.6,1.2,1.2,2.4,2.4,3,1.2,1.2,1.8,3,3,4.1.6.6.6,1.2,1.2,1.8v1.2c.6,1.2,1.2,3,2.4,4.7l2.4,4.1,4.7-.6h1.2c.6,0,1.8,0,2.4-.6,8.9-1.2,17.2-3,25.5-4.1,1.2,0,2.4-.6,2.4-.6h0l5.3-1.8-.6-5.9v-76.8h0c0-4.1-1.8-6.5-3.6-7.7l-2.4-1.8-4.7-.6h-2.4c-.6,0-1.8,0-2.4.6-1.2,0-2.4.6-3.6.6s-2.4.6-3.6.6c-1.8,0-3,.6-4.7.6s-1.8.6-3,.6-1.8.6-2.4.6c-1.2,0-3,.6-4.1.6s-2.4,0-3,.6c-.6,0-1.8,0-2.4.6h-.6l-5.3,1.2-1.2,5.3h0c0,.6-.6,1.2-.6,2.4v6c-.6-.6-1.2-1.2-1.8-1.2-1.8-1.2-3.6-2.4-5.3-4.1-2.4-1.8-5.9-3.6-9.5-5.3-1.8-.6-3.6-1.8-5.9-2.4-.6-.6-1.8-.6-2.4-1.2-1.8-.6-3-1.8-4.7-2.4-3-1.2-6.5-2.4-10.1-3.6-3-1.2-5.9-1.8-8.3-2.4q-.6,0-1.2-.6c-3-.6-6.5-1.8-10.1-1.8h-6c-.7-.4-1.3-.4-2.4-.4h0Z"/>
      </g>
      <g>
        <path class="st3" d="M2331.9,636.2c-8.9,0-18.4-1.2-27.2-3-18.9-4.1-36.7-11.8-52.7-23.7-.6-.6-1.8-1.2-4.1-3.6-1.8-1.2-4.7-4.1-7.1-5.9h0v13.7c0,3.6,0,6.5-.6,10.1,0,2.4-.6,4.7-2.4,7.1l-1.2,1.2h-5.4c-1.2,0-2.4,0-4.1-.6-3.6-.6-7.1-.6-10.1-.6h-13.1c-1.2,0-1.8-.6-3-.6l-3-1.2-.6-1.8c-1.2-2.4-1.2-4.7-.6-6.5v-1.2c0-10.1.6-20.1.6-30.2.6-15.4,1.2-31.4.6-46.8,0-3-.6-6.5-.6-9.5v-3h0c0-.6-.6-2.4.6-4.7l1.2-1.8h2.4c.6,0,1.8,0,2.4-.6,1.2,0,3-.6,4.7-.6h5.4c3,0,5.3-.6,8.3-.6s5.3-.6,7.7-.6h1.8c.6,0,1.8-.6,2.4-.6,1.8,0,4.7.6,5.9.6,1.8.6,3.6,1.8,4.1,4.1,0,.6,0,1.2.6,1.8v1.8c0,1.2.6,3,.6,4.1,1.2,11.8,14.2,31.4,22.5,39.7,9.5,10.1,21.9,15.4,39.1,18.4,1.2,0,1.8.6,3,.6,1.8.6,3.6.6,5.3.6,3,.6,5.3.6,7.7.6h1.2c29.6-.6,55.1-14.8,70.5-37.9,14.2-21.9,18.9-49.1,13-75.8-2.4-11.8-11.3-30.2-37.9-54.5-13-11.8-27.8-20.7-42.6-29.6-10.1-5.9-20.7-12.4-30.8-19.5-1.2-1.2-2.4-1.8-4.1-3-1.2-.6-2.4-1.2-3-2.4-.6-.6-1.8-1.2-2.4-1.8-.6-.6-1.2-1.2-1.8-1.2-1.8-1.2-4.1-3-5.9-4.1-2.4-1.8-4.7-3.6-7.1-4.7-.6-.6-1.8-1.2-2.4-1.8-.6-.6-1.2-1.2-1.8-1.2l-.6-1.2c-2.4-1.8-4.7-3.6-7.1-5.3-1.2-1.2-2.4-2.4-4.1-3.6-1.2-.6-1.8-1.8-3-2.4-32-29-49.7-60.4-53.3-94.1v-13.6c0-5.3,0-11.3,1.2-16.6v-1.2c.6-1.8,1.2-3.6,1.2-5.9s.6-2.4.6-3.6.6-2.4,1.2-3.6c.6-1.2.6-2.4,1.2-4.1.6-2.4,1.8-4.7,2.4-7.1,1.2-4.7,3.6-9.5,5.3-14.2.6-1.2,1.2-1.8,1.2-3,.6-1.8,1.8-3.6,3-5.9,22.5-37.9,61.6-60.4,105.4-60.4s14.8.6,21.9,1.8c1.8.6,3.6.6,5.3,1.2.6,0,1.2,0,1.2.6,2.4.6,5.3,1.2,7.7,1.8,1.2.6,3,1.2,4.7,1.8,1.8.6,3,1.2,4.7,1.8l1.8.6c.6,0,1.2.6,1.2.6,5.3,3,10.7,5.9,15.4,10.1,3,2.4,5.9,4.7,8.9,7.7,0-3,0-5.9-.6-9.5v-4.8c0-.6,0-1.2-.6-1.8v-1.8c-.6-2.4.6-4.1,1.2-5.3.6-1.2,2.4-1.8,4.7-1.8h5.4c7.1-.6,13-.6,18.9-1.2h11.9l1.2,2.4h0c0,.6.6,1.2.6,1.8v11.9l1.2,80.5v1.2c0,3-1.8,4.7-4.7,5.3-.6,0-1.8,0-2.4.6l-19.5,3c-1.8,0-10.1,1.2-10.1,1.2h-3l-1.8-1.8c-1.2-1.8-1.8-3.6-2.4-5.3,0-1.2-.6-3-1.8-4.1h0c0-.6-.6-.6-.6-1.2l-1.2-3c-.6-1.8-1.8-3.6-2.4-4.7,0,0,0-.6-.6-.6l-1.2-3c-1.8-3-4.1-5.9-5.9-8.3-11.8-16-32-35.5-61.6-35.5h-5.9c-23.1,1.8-45,14.8-58.6,34.9-17.8,26.1-20.1,62.8-5.3,90.6,15.4,29.6,44.4,48,72.8,65.7,5.9,3.6,11.8,7.7,17.8,11.3,1.8,1.2,3,1.8,4.7,3,1.2.6,1.8,1.2,3,1.8,4.1,2.4,7.7,4.7,11.3,6.5.6.6,1.2.6,2.4,1.2.6.6,1.2,1.2,2.4,1.2,3,1.8,5.3,3.6,7.7,5.3,1.2.6,2.4,1.8,3,2.4s.6.6,1.2,1.2c0,0,.6,0,.6.6,1.2,1.2,2.4,1.8,4.1,3l.6.6c.6.6,1.2.6,1.8,1.2,1.2.6,2.4,1.8,3.6,3h.6c1.2.6,24.3,20.1,41.4,43.2,1.2.6,1.8,1.8,1.8,2.4h0c.6.6.6,1.8,1.2,2.4,1.2,1.8,1.8,3.6,3,4.7.6.6,1.2,1.8,1.8,2.4s1.2,1.2,1.2,1.8v.6c.6,1.2,1.8,2.4,2.4,3.6,1.2,2.4,2.4,4.7,3,7.1h0c.6,1.8,1.2,3,1.8,4.7,1.8,4.1,3,9.5,3.6,14.8,4.7,29.6,1.2,60.4-10.7,87.6-12.4,29-33.2,51.5-59.8,65.1-13.4,6.9-29.4,10.5-46.6,10.5h0Z"/>
        <path class="st0" d="M2323,114.6c7.1,0,14.2.6,21.3,1.8,2.4.6,4.1,1.2,6.5,1.8s5.3,1.2,7.7,1.8c1.8.6,3,1.2,4.1,1.2,2.4.6,4.1,1.8,6.5,2.4q.6,0,1.2.6c5.3,3,10.7,5.9,14.8,9.5,3.6,3,7.1,5.9,10.1,9.5,1.8,1.8,3,3.6,4.7,5.3h.6v-.7c0-6.5,0-12.4-.6-18.9v-4.7c0-1.2-.6-2.4-.6-4.1s.6-3,2.4-3h6c6.5-.6,12.4-.6,18.9-1.2,2.4,0,4.1-.6,6.5-.6h2.4c0,.6.6.6.6,1.2v91.9c0,1.2-.6,1.2-1.2,1.8-1.2,0-1.8,0-3,.6-6.5,1.2-13,1.8-18.9,3-3.6.6-6.5,1.2-10.1,1.2h-1.2c-.6-1.2-1.2-2.4-1.2-3.6,0-1.8-1.2-4.1-1.8-5.9,0-.6-.6-.6-.6-1.2-1.2-2.4-2.4-5.3-3.6-7.7,0-.6-.6-.6-.6-1.2-2.4-3.6-5.3-7.7-7.7-11.3-16-21.9-37.9-37.3-65.1-37.3h-5.9c-24.9,1.8-47.4,16.6-61.6,36.7-18.9,27.2-21.3,65.1-5.9,94.7,19.5,36.7,58.6,56.3,91.8,78.8,2.4,1.8,5.3,3,7.7,4.7,3.6,2.4,7.7,4.7,11.3,6.5,1.2.6,3,1.8,4.1,3,3.6,2.4,7.1,4.7,10.7,7.1.6.6,1.2.6,1.8,1.2,1.2,1.2,2.4,1.8,4.1,3,.6.6,1.8,1.2,2.4,1.8,1.2,1.2,3,2.4,4.1,3,0,0,24.3,20.1,41.4,42.6.6.6,1.2,1.2,1.2,1.8,1.2,2.4,2.4,4.7,4.1,7.7,1.2,1.8,2.4,3,3,4.7.6,1.2,1.8,2.4,2.4,3.6,1.2,2.4,1.8,4.7,3,7.1.6,1.2,1.2,3,1.8,4.1,1.8,4.7,2.4,9.5,3.6,14.2,9.5,56.8-14.2,121.4-68.1,148.6-13.6,7.1-29,10.1-45,10.1s-17.8-1.2-26.6-3c-18.9-4.1-36.1-11.8-51.5-23.1-1.8-1.2-14.8-13.6-16.6-13.6h0c-.6,0-.6.6-.6,1.2,0,5.3-.6,10.7,0,16v2.4c0,4.1,0,7.7-.6,11.8,0,1.8,0,3-1.8,4.7h-1.2c-1.8,0-3.6-.6-5.9-.6-3.6-.6-7.1-.6-10.7-.6h-12.5c-1.2-.6-2.4-.6-3.6-1.2-.6-1.8-.6-4.1-.6-5.9,0-26.1,2.4-51.5,1.2-77,0-4.1-.6-8.3-.6-12.4s-.6-1.2,0-2.4c1.2,0,1.8-.6,3-.6,1.8,0,3-.6,4.7-.6s3.6,0,5.3-.6c3,0,5.3-.6,8.3-.6s5.3-.6,7.7-.6,1.8,0,3-.6h1.2c1.8,0,4.1.6,4.7.6s1.2.6,1.2,1.2v1.2c0,1.8.6,3.6.6,5.9,1.2,13,14.8,33.8,23.7,42.6,11.3,11.8,24.9,16.6,40.9,19.5,3,.6,5.9,1.2,8.9,1.2,3,.6,5.3.6,8.3.6h1.2c30.2-.6,57.4-14.2,74-39.7,15.4-23.1,19.5-52.1,13.6-78.8-4.7-21.3-23.1-42-39.1-56.3-22.5-20.1-49.7-32-74-49.7-2.4-1.8-4.7-3-7.1-4.7-1.2-1.2-3-1.8-4.1-3-4.1-3-8.9-5.9-13-9.5-1.2-1.2-3-2.4-4.1-3-2.4-1.8-4.7-3.6-7.1-5.3-2.4-2.4-4.7-4.1-7.1-5.9-26.6-24.3-48-54.5-51.5-91.8,0-2.4,0-4.1-.6-6.5,0-2.4,0-4.1-.6-6.5,0-5.3,0-10.7,1.2-16v-.6c1.2-3,1.2-6.5,2.4-10.1,0-1.2.6-1.8.6-3,1.2-3.6,2.4-7.1,3.6-11.3,1.8-5.9,4.1-11.3,6.5-16.6.6-1.8,1.8-3.6,3-5.3,22.3-37.7,60.8-59.1,102.2-59.1M2323,106.2c-45,0-85.9,23.1-109,62.8-1.2,2.4-2.4,4.1-3,5.9-.6,1.2-1.2,1.8-1.2,3-1.8,4.7-4.1,9.5-5.9,14.8-.6,2.4-1.2,4.7-2.4,7.1-.6,1.2-.6,2.4-1.2,4.1-.6,1.2-.6,2.4-1.2,3.6,0,1.2-.6,2.4-.6,3.6-.6,1.8-.6,3.6-1.2,5.3-.6.6-.6,1.8-.6,2.4-1.2,5.3-1.2,11.3-1.2,17.2v13c3.6,34.9,21.9,67.5,54.5,96.5,1.2,1.2,1.8,1.8,3,2.4,1.2,1.2,2.4,2.4,3.6,3.6,2.4,2.4,4.7,4.1,7.1,5.9l.6.6c.6.6,1.2.6,1.8,1.2s1.8,1.2,2.4,1.8c2.4,1.8,4.7,3.6,7.1,4.7,1.8,1.2,4.1,3,5.9,4.1.6.6,1.2.6,1.8,1.2s1.8,1.2,2.4,1.8c1.2.6,2.4,1.2,3,2.4,1.2.6,2.4,1.8,3.6,2.4,10.1,7.1,20.7,13.6,31.4,20.1,15.4,8.9,29.6,17.8,42,29,11.8,10.7,32,31.4,36.7,52.1,5.9,25.5,1.2,52.1-12.4,72.8-7.7,11.3-17.2,20.1-29,26.6-11.8,5.9-24.3,9.5-38.5,9.5h-.6c-2.4,0-4.7,0-7.1-.6-1.8,0-3.6-.6-5.3-.6s-2.4-.6-3-.6c-16.6-2.4-27.2-7.7-36.7-17.2-8.9-8.9-20.7-27.8-21.3-37.3,0-1.8-.6-3-.6-4.7v-1.8c0-.6,0-1.2-.6-2.4-1.2-3.6-3.6-5.9-7.1-7.1-1.2-.6-4.1-.6-6.5-.6s-2.4,0-3.6.6h-1.2c-2.4,0-4.7.6-7.7.6s-5.9.6-8.3.6h-5.4c-1.8,0-3.6.6-5.3.6s-1.8,0-2.4.6h-.6l-3.6.6-1.8,3.6c-1.8,3-1.2,5.9-1.2,7.1h0v3c0,3,.6,5.9.6,9.5.6,15.4,0,31.4-.6,46.8-.6,10.1-.6,20.1-.6,30.2v1.2c0,2.4,0,4.7,1.2,8.3l1.2,3.6,3.6,1.2q.6,0,1.2.6c1.2.6,1.8.6,3,1.2s2.4.6,3,.6h11.3c3,0,6.5,0,9.5.6,1.2,0,3,.6,4.1.6h7.7l2.4-2.4c3.6-3.6,3.6-7.7,3.6-9.5,0-3.6,0-6.5.6-10.1v-5.4h0s.6,0,.6.6c3,2.4,3.6,3.6,4.7,4.1,16.6,11.8,34.9,20.1,54.5,24.3,9.5,1.8,18.9,3,28.4,3,17.8,0,34.9-3.6,48.6-10.7,27.2-13.6,48.6-36.7,61.6-66.9,11.8-27.8,16-59.8,10.7-90-1.2-5.9-2.4-10.7-3.6-15.4-.6-1.8-1.2-3-1.8-4.7h0c-1.2-2.4-1.8-4.7-3-7.1-.6-1.8-1.8-3-2.4-4.1v-.6c-.6-.6-1.2-1.2-1.2-1.8-.6-.6-1.2-1.2-1.2-2.4-.6-1.8-1.8-3-2.4-4.7-.6-.6-.6-1.8-1.2-2.4h0c-.6-.6-1.2-2.4-2.4-3.6-17.2-23.1-40.9-42.6-42-43.2l-.6-.6-.6-.6c-1.2-.6-2.4-1.8-3-2.4s-1.2-1.2-1.8-1.2l-.6-.6c-1.2-1.2-2.4-1.8-3.6-3h-.6c-.6,0-.6-.6-1.2-1.2-1.2-.6-1.8-1.2-3-2.4-2.4-1.8-5.3-3.6-8.3-5.3-.6-.6-1.2-.6-1.8-1.2s-1.2-1.2-2.4-1.2c-3.6-2.4-7.7-4.1-11.3-6.5-1.2-.6-1.8-1.2-3-1.8-1.8-1.2-3-1.8-4.7-2.4-5.9-4.1-11.8-7.7-17.8-11.3-27.8-17.8-56.3-35.5-71.6-63.9-14.2-26.6-11.8-61.6,5.3-86.5,6.5-9.5,14.8-17.2,24.3-23.1,10.1-5.9,20.7-9.5,31.4-10.7h5.3c27.8,0,47.4,18.4,58.6,33.8,1.8,3,4.1,5.3,5.9,8.3.6,1.2,1.2,1.8,1.8,3h0c.6,1.8,1.8,3,2.4,4.7.6,1.2,1.2,1.8,1.2,3s.6,1.2.6,1.2h0c.6,1.2,1.2,1.8,1.2,3,.6,2.4,1.2,4.7,3,7.1l3,3.6,4.7-.6h1.2l4.1-.6c1.8,0,3.6-.6,5.9-.6,3.6-.6,6.5-1.2,10.1-1.2,3-.6,6.5-.6,9.5-1.2h.6c.6,0,1.8,0,3-.6,4.1-.6,7.1-4.1,7.7-8.9v-1.8h0v-88.9h0v-3c0-1.2-.6-2.4-1.2-3h0l-1.8-4.7h-8.3c-1.8,0-3.6,0-5.3.6h-1.8c-5.9.6-11.8.6-18.9,1.2h-5.4c-3,0-5.9,1.2-7.7,3.6-1.8,2.4-3,5.3-2.4,8.3,0,.6,0,1.2.6,1.8v6c-.6-.6-1.2-1.2-1.8-1.8-5.3-4.1-10.7-7.1-16-10.1-.6,0-1.2-.6-1.8-.6s-1.2-.6-1.8-.6c-1.8-.6-3-1.2-4.7-1.8-5.3-4.1-7.1-4.1-8.3-4.7-2.4-.6-5.3-1.2-7.7-1.8-.6,0-1.2,0-1.2-.6-1.8-.6-3.6-1.2-5.3-1.2-8-1.7-15.7-2.3-23.4-2.3h0Z"/>
      </g>
      <g>
        <path class="st3" d="M2341.4,413.6l3.6-.6c2.4,0,4.7-1.2,7.1-1.8,1.2-.6,3-1.2,4.1-1.8,3-1.2,5.9-2.4,8.9-4.1h1.2c1.2-.6,2.4-1.2,4.1-2.4.6-.6,1.2-1.2,2.4-1.2l.6-.6c2.4-2.4,4.7-4.1,7.1-5.9,1.2-.6,1.8-1.2,3-2.4.6-.6,1.2-1.2,2.4-1.8.6-.6,1.8-1.2,2.4-1.8.6-.6,1.2-1.2,1.2-1.2,4.1-4.1,7.1-7.7,9.5-11.3,2.4-3,4.1-6.5,5.9-9.5l.6-1.2c1.2-2.4,2.4-4.1,4.1-7.1,1.2-1.8,1.8-3.6,2.4-5.3.6-.6,1.2-2.4,1.2-2.4.6-1.2,1.2-3,2.4-4.7q.6-.6,1.2-1.2h0l1.8-1.8,2.4.6c2.4.6,4.1,1.8,6.5,3.6l.6.6c1.2.6,2.4,1.8,3.6,1.8,1.2.6,2.4,1.2,3,1.8q.6.6,1.2.6c1.2.6,1.8,1.2,3,1.8s1.8,1.2,3,1.8c.6.6,1.8.6,2.4,1.2,1.8.6,3,1.2,3.6,2.4l.6.6c2.4,1.8,3.6,4.7,1.8,7.7-.6,1.2-1.2,2.4-2.4,3.6l-.6,1.2-.6.6h0c-1.2,3-3.6,5.3-4.7,7.7-.6,1.2-1.8,2.4-2.4,3-.6.6-.6,1.2-1.2,1.8-.6.6-1.2,1.8-1.8,2.4-.6,1.2-1.2,2.4-1.8,3.6-1.2,2.4-3,4.1-4.1,6.5l-1.2,1.2c-3,4.1-6.5,8.3-10.1,11.8h0c-3,3-5.3,5.9-8.9,8.9-.6.6-1.2.6-1.2,1.2-.6.6-1.2,1.2-1.8,1.8-1.2,1.2-2.4,2.4-3.6,3.6-1.2.6-2.4,1.8-3.6,3-2.4,1.8-4.1,3.6-7.1,5.3-1.2.6-3,1.8-4.7,3s-4.1,2.4-5.9,3c-1.2.6-2.4,1.2-3,1.2l-1.2.6c-.6,0-.6.6-1.2.6s-.6,0-1.2.6c-4.1,1.8-8.9,3.6-14.2,4.7h0c-3,1.2-6.5,1.8-9.5,2.4-.6,0-2.4.6-2.4.6-1.8.6-4.1.6-5.9,1.2h-5.3l2.7-39.5Z"/>
        <path class="st0" d="M2418.3,347.9c1.8.6,3.6,1.8,5.3,3,1.8,1.2,3,2.4,4.7,3,1.8.6,2.4,1.8,4.1,2.4,1.8,1.2,3.6,2.4,5.3,3.6,1.2.6,1.8,1.2,3,1.2,1.2.6,2.4,1.8,3.6,2.4s1.2,1.2.6,1.8c-.6,1.2-1.8,3-3,4.1,0,.6-.6.6-.6,1.2-1.8,3.6-4.7,7.1-7.1,10.7-1.2,1.2-1.8,3-3,4.1-.6,1.2-1.8,2.4-2.4,4.1-1.2,2.4-2.4,4.1-4.1,5.9-3.6,4.1-6.5,8.3-10.1,12.4-2.4,3-5.3,5.9-8.3,8.3-.6.6-1.2,1.2-1.8,1.8-1.8,1.8-3,3-4.7,4.7-3.6,2.4-6.5,5.9-10.1,7.7-1.2,1.2-3,1.8-4.1,2.4-1.8,1.2-3.6,1.8-5.9,3-1.2.6-2.4,1.2-4.1,1.8-.6.6-1.2.6-1.8.6-4.1,1.8-8.9,3.6-13.6,4.7h-.6c-3.6,1.2-6.5,1.8-10.1,2.4-2.4.6-4.7.6-7.1,1.2l2.4-30.8c3,0,5.9-1.2,8.3-2.4,4.7-1.8,8.9-3.6,13.6-6.5,2.4-1.2,4.7-2.4,7.1-4.1.6-.6,1.2-.6,1.8-1.2,3-3,5.9-5.3,9.5-7.7,1.2-1.2,3-2.4,4.1-3.6.6-.6,1.2-1.2,1.8-1.8,3.6-3.6,7.1-7.7,10.1-11.8,2.4-3.6,4.7-7.1,7.1-11.3,1.2-2.4,3-4.7,4.1-7.1,1.2-2.4,2.4-4.7,3.6-7.7.6-1.2,1.2-3,2.4-4.1-.5,2.2,0,2.2,0,1.6M2416.6,339l-3.6,3.6h0c-.6,0-.6.6-1.2,1.8-1.2,1.8-2.4,3.6-3,5.3v.6c-.6.6-.6,1.2-1.2,1.8-.6,1.8-1.8,3.6-2.4,5.3-1.2,2.4-2.4,4.7-3.6,6.5l-.6,1.2c-1.8,3.6-4.1,6.5-5.9,9.5-2.4,3.6-5.3,6.5-8.9,10.7q-.6.6-1.2,1.2c-.6.6-1.8,1.2-2.4,1.8-.6.6-1.2,1.2-2.4,1.8-.6.6-1.8,1.2-2.4,2.4-2.4,1.8-4.7,4.1-7.1,6.5h0c-.6.6-1.8,1.2-2.4,1.2-1.2.6-2.4,1.8-3,1.8h-.6l-.6.6c-2.4,1.8-5.3,3-8.3,4.1-1.2.6-3,1.2-4.1,1.8-1.8,1.2-4.1,1.8-5.9,1.8l-6.5.6-.6,6.5-2.4,30.8-.6,10.7,10.1-2.4c1.8-.6,3.6-.6,5.9-1.2h2.4c3-.6,6.5-1.2,10.1-2.4,5.3-1.2,10.1-3,14.8-4.7,0,0,.6,0,.6-.6.6,0,.6-.6,1.2-.6s.6,0,1.2-.6c1.2-.6,2.4-1.2,3.6-1.8,1.8-1.2,4.1-1.8,5.9-3s3.6-1.8,4.7-3c3-1.8,5.3-3.6,7.7-5.9,1.2-1.2,2.4-1.8,3-2.4,1.8-1.2,3-2.4,4.1-3.6.6-.6,1.2-1.2,1.2-1.2h0q.6-.6,1.2-1.2c3.6-3,7.1-6.5,9.5-9.5h0c3.6-4.1,7.1-8.3,10.1-12.4l.6-.6.6-.6c1.8-1.8,3.6-4.1,4.7-7.1.6-.6,1.2-1.8,1.8-3,.6-.6,1.2-1.2,1.8-2.4.6-.6.6-1.2,1.2-1.8.6-1.2,1.2-1.8,2.4-3,1.8-2.4,3.6-4.7,5.3-7.7l.6-.6c0-.6.6-.6.6-1.2.6-1.2,1.8-2.4,2.4-3.6,3-4.7,1.8-9.5-3-13l-.6-.6c-1.2-.6-3-1.8-4.7-3-.6,0-1.2-.6-1.8-.6-.6-.6-1.8-1.2-2.4-1.8-1.2-.6-1.8-1.2-3-1.8l-.6-.6c-1.2-.6-2.4-1.8-4.1-2.4-.6,0-1.8-1.2-2.4-1.8l-.6-.6c-2.4-1.8-4.7-3-7.1-3.6l-8.1-2h0Z"/>
      </g>
      <path class="st3" d="M2285.1,406.5c4.1,2.4,8.3,4.1,12.4,5.9,3,1.2,5.9,1.8,8.3,2.4,3.6.6,7.1,1.2,10.7,2.4,1.8,0,3,.6,4.7.6,3,0,6.5.6,9.5.6s5.3,0,8.3-.6c1.8-.6,4.1-.6,5.9-1.2,3,0,5.9-1.2,8.3-2.4,4.7-1.8,8.9-3.6,13.6-6.5,2.4-1.2,4.7-2.4,7.1-4.1.6-.6,1.2-.6,1.8-1.2,3-3,5.9-5.3,9.5-7.7,1.2-1.2,3-2.4,4.1-3.6.6-.6,1.2-1.2,1.8-1.8,3.6-3.6,7.1-7.7,10.1-11.8l29,11.3c-1.2,2.4-2.4,4.1-4.1,5.9-3.6,4.1-6.5,8.3-10.1,12.4-2.4,3-5.3,5.9-8.3,8.3-.6.6-1.2,1.2-1.8,1.8-1.8,1.8-3,3-4.7,4.7-3.6,2.4-6.5,5.9-10.1,7.7-1.2,1.2-3,1.8-4.1,2.4-1.8,1.2-3.6,1.8-5.9,3-1.2.6-2.4,1.2-4.1,1.8-.6.6-1.2.6-1.8.6-4.1,1.8-8.9,3.6-13.6,4.7h-.6c-3.6,1.2-6.5,1.8-10.1,2.4-2.4.6-4.7.6-7.1,1.2-1.8.6-3.6.6-5.9.6h-6.5c-4.1,0-7.7-.6-11.8-1.2-1.2-.6-3-.6-4.1-.6-1.8,0-3,0-4.1-.6-1.8-.6-4.1-.6-5.9-1.2-3.6-.6-7.1-1.8-11.3-3-.6,0-1.2-.6-1.8-.6-2.4-.6-4.1-1.2-6.5-1.8"/>
    </g>
    <g>
      <path class="st3" d="M2266.8,652.8l-.6-2.4c-.6-2.4-.6-4.7,0-7.1v-123.9l39.7,1.8v4.1c-.6,16,0,32.6,0,48.6v68.7c0,3,0,5.3-.6,7.7v10l-38.5-7.5Z"/>
      <path class="st0" d="M2270.3,523.8l32,1.2c-.6,24.3,0,48,.6,72.2v16c0,5.3,0,10.7-.6,16,0,4.1,0,8.9-.6,13,0,4.1-.6,8.9-.6,13l-31.4-5.3c-.6-3,0-5.9,0-8.9,0-4.7,0-8.9.6-13.6v-15.4c0-4.1-.6-8.9-.6-13v-54.5c0-4.7.6-8.9,0-13.6.6-2.4.6-4.7.6-7.1M2263.2,515.5l-.6,7.7v118.6c0,2.4,0,4.7.6,7.7l1.2,5.3,5.3,1.2,31.4,5.3,8.9,1.8.6-8.9v-5.3c0-2.4,0-5.3.6-8.3v-68.7c0-16-.6-32,0-48v-7.7l-8.3,1.2-32-1.2-7.7-.7h0Z"/>
    </g>
    <path class="st3" d="M2301.7,689c0-7.1.6-13.6.6-20.7s0-13.6.6-20.7c0-8.3.6-16.6.6-25.5v-24.9c0-37.9-1.2-75.2-.6-113.1l-32-2.4v11.3c.6,7.1,0,14.2,0,21.3v84.7c0,7.1.6,13.6.6,20.7v24.3c0,7.1-.6,14.2-.6,21.3s-.6,9.5,0,14.2l30.8,9.5Z"/>
  </g>
  <rect class="st2" x="597.1" y="88.6" width="3401.7" height="618"/>
  <path d="M718,509c-17.9,0-50.2-7.8-50.2-22.9s2.3-6.2,6.6-14.4c13.6,8.9,28.4,14,42.4,14s32.7-7.4,32.7-19.4-16.7-17.5-34.6-23l-.8-.4-2.3-.8c-12.1-3.9-23-7.8-29.6-12.8-10.1-7.8-15.6-18.3-15.6-29.6,0-24.1,28-43.6,62.2-43.6s23.7,1.6,35,5.8c7.8,2.7,16.7,7.8,16.7,15.6s-3.5,10.9-5.8,14.8c-10.1-8.2-24.1-12.4-43.6-12.4s-32.3,3.9-32.3,18.3,15.6,17.9,40.8,28.4c4.7,1.9,15.2,6.2,19.4,8.6,14,8.2,22.6,20.2,22.6,32.3.6,21.6-29.4,41.5-63.6,41.5Z"/>
  <path d="M863.5,507.3v-149.8h117.5v24.9h-91.4v35.8h66.9v26.5h-66.9v37h92.6v25.7h-118.7Z"/>
  <path d="M1280.1,507.3v-124.5h-46.7v-25.3h116.3v25.3h-45.5v124.5h-24.1Z"/>
  <path d="M1459.8,507.3v-124.5h-47.1v-25.3h116.7v25.3h-45.9v124.5h-23.7Z"/>
  <path d="M1610.3,507.3v-149.8h24.1v123.3h64.6v26.5h-88.7Z"/>
  <path d="M1767.5,507.3v-149.8h117.5v24.9h-91.4v35.8h66.9v26.5h-66.9v37h92.6v25.7h-118.7Z"/>
  <path d="M1121.4,355.9l48.3,155.1h-27.7l-35.7-111.4-37,111.4h-26.5l52.1-155.1h26.5Z"/>
  <path d="M1144.7,460.6h-72.7v24.5h72.7v-24.5Z"/>
  <path d="M2788.7,508.2c-39.1,0-72.8-34.5-73.6-74.8v-1.2c0-29.2,18.9-75.2,69.5-75.2s46.5,17.7,46.9,20.6v.4c-.8,2.9-3.7,9-8.6,17.3-4.9-4.5-16.4-13.6-31.2-13.6s-4.1,0-6.2.4c-29.2,3.3-46.1,21.4-46.1,50.2s22.2,51.8,51,51.8,27.1-6.6,33.7-13.2c6.2,9.5,7.8,14.4,7.8,16.4v1.2c-9.5,12.3-25.9,19.7-43.2,19.7Z"/>
  <path d="M2988.1,507.5l-34.9-58.4h-32.1v58.4h-24.7v-148.9h60.8c33.7,0,57.2,18.5,57.2,45.2s-11.1,32.5-30.8,39.9l-7,2.5,36.2,60.9h-24.7v.4ZM2925.6,424.8h30c16,0,32.1-7.4,32.1-21.4s-8.2-20.1-32.1-20.1h-30v41.5Z"/>
  <path d="M3083.1,507.5v-148.9h117.6v24.7h-92.1v35.8h67.4v25.9h-67.4v37h93.3v25.5h-118.8Z"/>
  <path d="M3469.2,507.5v-123.8h-46.5v-25.1h116v25.1h-45.7v123.8h-23.8Z"/>
  <path d="M3626.7,358.5h-24.3v148.8h24.3v-148.8Z"/>
  <path d="M3740.6,507.5l-47.3-148.8h27.6l34.5,106.9,34.1-106.9h25.1l-48.1,148.8h-25.9Z"/>
  <path d="M3330.6,358.5l46.9,148.8h-27.1l-34.9-106.5-36.2,106.5h-25.9l51-148.8h26.2Z"/>
  <path d="M3879.9,507.5v-148.9h117.6v24.7h-92.1v35.8h67.4v25.9h-67.4v37h93.3v25.5h-118.8Z"/>
  <path d="M3355.3,456.5h-76.9v25.9h76.9v-25.9Z"/>
</svg>