<svg width="24" height="24" viewBox="0 0 32 32" fill="none" xmlns="http://www.w3.org/2000/svg">
<path fill-rule="evenodd" clip-rule="evenodd" d="M16 29C23.1797 29 29 23.1797 29 16C29 8.8203 23.1797 3 16 3C8.8203 3 3 8.8203 3 16C3 23.1797 8.8203 29 16 29ZM16 32C24.8366 32 32 24.8366 32 16C32 7.16344 24.8366 0 16 0C7.16344 0 0 7.16344 0 16C0 24.8366 7.16344 32 16 32ZM10 11C10 10.4477 10.4477 10 11 10H13C13.5523 10 14 10.4477 14 11V21C14 21.5523 13.5523 22 13 22H11C10.4477 22 10 21.5523 10 21V11ZM19 10C18.4477 10 18 10.4477 18 11V21C18 21.5523 18.4477 22 19 22H21C21.5523 22 22 21.5523 22 21V11C22 10.4477 21.5523 10 21 10H19Z" fill="black"/>
</svg>
